<?xml version="1.0" encoding="UTF-8"?>
<svg id="Layer_1" xmlns="http://www.w3.org/2000/svg" version="1.1" viewBox="0 0 1835.77 1404.04">
  <!-- Generator: Adobe Illustrator 30.0.0, SVG Export Plug-In . SVG Version: 2.1.1 Build 123)  -->
  <path fill="white" d="M1142.67,1111.29l32.61,102.45c.57,1.79,1.98,3.2,3.77,3.77l102.45,32.61c5.39,1.71,5.39,9.34,0,11.05l-102.45,32.61c-1.79.57-3.2,1.98-3.77,3.77l-32.61,102.45c-1.71,5.39-9.34,5.39-11.05,0l-32.61-102.45c-.57-1.79-1.98-3.2-3.77-3.77l-102.45-32.61c-5.39-1.71-5.39-9.34,0-11.05l102.45-32.61c1.79-.57,3.2-1.98,3.77-3.77l32.61-102.45c1.71-5.39,9.34-5.39,11.05,0Z"/>
  <path fill="white" d="M170.76,587.11l36.67,115.23c.57,1.79,1.98,3.2,3.77,3.77l115.23,36.67c5.39,1.71,5.39,9.34,0,11.05l-115.23,36.67c-1.79.57-3.2,1.98-3.77,3.77l-36.67,115.23c-1.71,5.39-9.34,5.39-11.05,0l-36.67-115.23c-.57-1.79-1.98-3.2-3.77-3.77l-115.23-36.67c-5.39-1.71-5.39-9.34,0-11.05l115.23-36.67c1.79-.57,3.2-1.98,3.77-3.77l36.67-115.23c1.71-5.39,9.34-5.39,11.05,0Z"/>
  <path fill="white" d="M529.04,85.4l26.13,82.11c.57,1.79,1.98,3.2,3.77,3.77l82.11,26.13c5.39,1.71,5.39,9.34,0,11.05l-82.11,26.13c-1.79.57-3.2,1.98-3.77,3.77l-26.13,82.11c-1.71,5.39-9.34,5.39-11.05,0l-26.13-82.11c-.57-1.79-1.98-3.2-3.77-3.77l-82.11-26.13c-5.39-1.71-5.39-9.34,0-11.05l82.11-26.13c1.79-.57,3.2-1.98,3.77-3.77l26.13-82.11c1.71-5.39,9.34-5.39,11.05,0Z"/>
  <path fill="white" d="M1815.27,572.89c-37.41-27.51-42.96-42.63-70.76-71.67-27.81-29.07-72-62.13-145.55-73.88-73.55-11.75-113.2-18.43-113.2-18.43,0,0-17.91-83.42-45.72-170.27-27.84-86.82-59.02-125.76-80.37-151.39C1338.36,61.59,1236.09-2.98,1213.54.11c-22.58,3.08-23.81,15.15-23.81,15.15-4.64,17.62,8.95,166.87,53.47,256.48,44.48,89.58,133.8,187.53,133.8,187.53-17,12.07-65.83,63.37-95.49,85.01-29.65,21.61-42.96,15.12-129.49,5.84-86.5-9.25-129.65-13.98-195.19-4.51-61.42,8.89-109.96,34.03-115.8,37.15,147.01-88.67,258.78-94.84,258.78-94.84,30.27-38.93,55.61-223.09-4.96-253.36-59.73-29.88-213.96,69.99-217.88,72.43,86.52-123.6,184.34-145.42,211.48-151.97,4.09-.99,4.86-6.51,1.2-8.57-121.62-68.57-379.75,99.79-506.49,440.99-130.4,351.02-69.21,574.12,0,623.14,69.21,49.02,201.68-98.05,201.68-98.05-49.34,120.87-115.26,173.74-147.01,193.38-1.77,1.09-.42,3.79,1.52,3.05,31.9-12.32,101.17-39.83,182.46-109.7,114.3-98.24,137.87-211.12,137.87-211.12,0,0-48.04,16.87-129.32,9.44-11.68-1.07-22.68-2.63-32.96-4.54-61.32-11.29-97.11-34.39-97.11-34.39,37.05,7.62,70.24,9.83,99.87,8.14,148.99-8.27,207.26-113.91,207.26-113.91,8.34,40.46-17.91,92.99-17.91,92.99,0,0,121.44,12.07,220.01,37.08,98.57,25.05,192.5,146.46,220.01,166.25,27.48,19.79,110.61,19.66,123.91,17.2,13.27-2.47,18.53-15.15,15.44-25.96-3.08-10.8-46.36-65.18-97.01-118.33-50.68-53.18-118.46-100.22-118.46-100.22,64.47-29.88,97.53-83.22,143.57-128.03,46.04-44.81,139.97-70.76,224.65-78.81,84.65-8.05,101.97-56.55,104.12-61.48,2.17-4.96,26.9-53.14-10.48-80.66ZM1668.17,568.34c-29.34,11.84-57.03-15.85-45.19-45.19,3.14-7.77,9.41-14.05,17.19-17.19,29.34-11.84,57.03,15.85,45.19,45.19-3.14,7.77-9.41,14.05-17.19,17.19Z"/>
  <path fill="white" d="M1512.23,381.83l83.78,11.89s-4.57-172.77-20.33-216.24c-14.65-40.42-66.74-153.26-102.59-155.32-35.84-2.06-31.61,34.3-35.43,116.18,0,0,26.37,63.04,41.2,107.12,14.83,44.08,33.37,136.37,33.37,136.37Z"/>
  <path fill="white" d="M1603.28,948.53c-67.98-54.38-64.27-52.73-121.13-86.1,0,0-33.9,40.94-70.45,63.04,0,0,79.72,46.35,119.89,100.73,40.17,54.38,50.06,84.67,135.96,80.34s3.71-103.63-64.27-158.01Z"/>
</svg>
