<svg id="Layer_3" enable-background="new 0 0 64 64" height="512" viewBox="0 0 64 64" width="512" xmlns="http://www.w3.org/2000/svg"><path d="m2 38h60v24h-60z" fill="#c7e2fc"/><path d="m2 38v11.509c5.642 2.84 12.327 4.491 19.5 4.491 14.274 0 26.625-6.513 32.625-16z" fill="#ebf7fe"/><g fill="#976947"><path d="m8 62v-20h12v20"/><path d="m44 62v-20h12v20"/><path d="m62 38c0-5.523-4.477-10-10-10h-40c-5.523 0-10 4.477-10 10"/></g><path d="m40 18h12v4h-12z" fill="#4472b2"/><path d="m28 16c0 5.523-4.477 10-10 10s-10-4.477-10-10z" fill="#2d4d83"/><path d="m22.872 16h-14.872c0 2.715 1.086 5.174 2.843 6.976.219.009.435.024.657.024 5.798 0 10.58-3.045 11.372-7z" fill="#4472b2"/><path d="m62 63h-60c-.553 0-1-.448-1-1v-24c0-.552.447-1 1-1h60c.553 0 1 .448 1 1v24c0 .552-.447 1-1 1zm-59-2h58v-22h-58z"/><path d="m63 38h-2c0-4.962-4.037-9-9-9h-40c-4.963 0-9 4.038-9 9h-2c0-6.065 4.935-11 11-11h40c6.065 0 11 4.935 11 11z"/><path d="m25 41h6v2h-6z"/><path d="m25 45h6v2h-6z"/><path d="m25 49h6v2h-6z"/><path d="m25 53h6v2h-6z"/><path d="m25 57h6v2h-6z"/><path d="m33 41h6v2h-6z"/><path d="m33 45h6v2h-6z"/><path d="m33 49h6v2h-6z"/><path d="m33 53h6v2h-6z"/><path d="m33 57h6v2h-6z"/><path d="m48 29h-4c-.553 0-1-.448-1-1v-6c0-.552.447-1 1-1h4c.553 0 1 .448 1 1v6c0 .552-.447 1-1 1zm-3-2h2v-4h-2z"/><path d="m52 23h-12c-.553 0-1-.448-1-1v-4c0-.552.447-1 1-1h12c.553 0 1 .448 1 1v4c0 .552-.447 1-1 1zm-11-2h10v-2h-10z"/><path d="m21 62h-2v-19h-10v19h-2v-20c0-.552.447-1 1-1h12c.553 0 1 .448 1 1z"/><path d="m11 51h2v2h-2z"/><path d="m57 62h-2v-19h-10v19h-2v-20c0-.552.447-1 1-1h12c.553 0 1 .448 1 1z"/><path d="m47 51h2v2h-2z"/><path d="m18 27c-6.065 0-11-4.935-11-11 0-.552.447-1 1-1h20c.553 0 1 .448 1 1 0 6.065-4.935 11-11 11zm-8.944-10c.499 4.494 4.319 8 8.944 8s8.445-3.506 8.944-8z"/><path d="m18 7c-1.654 0-3-1.346-3-3s1.346-3 3-3 3 1.346 3 3-1.346 3-3 3zm0-4c-.552 0-1 .449-1 1s.448 1 1 1 1-.449 1-1-.448-1-1-1z"/><path d="m10.901 10h10.198v2h-10.198z" transform="matrix(.196 -.981 .981 .196 2.073 24.529)"/><path d="m19 5.901h2v10.198h-2z" transform="matrix(.981 -.196 .196 .981 -1.769 4.136)"/><path d="m49 14h-2c0-6.065-4.935-11-11-11v-2c7.168 0 13 5.832 13 13z"/><path d="m45 14h-2c0-3.86-3.141-7-7-7v-2c4.963 0 9 4.038 9 9z"/><path d="m41 14h-2c0-1.654-1.346-3-3-3v-2c2.757 0 5 2.243 5 5z"/><path d="m34 19c-1.654 0-3-1.346-3-3s1.346-3 3-3 3 1.346 3 3-1.346 3-3 3zm0-4c-.552 0-1 .449-1 1s.448 1 1 1 1-.449 1-1-.448-1-1-1z"/></svg>