<svg id="Layer_3" enable-background="new 0 0 64 64" height="512" viewBox="0 0 64 64" width="512" xmlns="http://www.w3.org/2000/svg"><g fill="#59ac98"><circle cx="5" cy="5" r="3"/><circle cx="59" cy="59" r="3"/><circle cx="32" cy="32" r="30"/></g><circle cx="32" cy="32" fill="#70ce90" r="21"/><circle cx="32" cy="32" fill="#59ac98" r="10"/><path d="m32 38c-3.309 0-6-2.691-6-6s2.691-6 6-6 6 2.691 6 6-2.691 6-6 6zm0-10c-2.206 0-4 1.794-4 4s1.794 4 4 4 4-1.794 4-4-1.794-4-4-4z"/><path d="m32 43v-2c11.58 0 21-8.523 21-19s-9.42-19-21-19v-2c12.682 0 23 9.42 23 21 0 11.579-10.318 21-23 21z"/><path d="m32 63c-12.682 0-23-9.421-23-21 0-11.58 10.318-21 23-21v2c-11.58 0-21 8.523-21 19s9.42 19 21 19z"/><path d="m43 32h-2c0-11.58-8.523-21-19-21s-19 9.42-19 21h-2c0-12.682 9.42-23 21-23s21 10.318 21 23z"/><path d="m42 55c-11.58 0-21-10.317-21-23h2c0 11.579 8.523 21 19 21s19-9.421 19-21h2c0 12.683-9.42 23-21 23z"/><path d="m17 17h2v2h-2z"/><path d="m13 17h2v2h-2z"/><path d="m15 15h2v2h-2z"/><path d="m15 19h2v2h-2z"/><path d="m5 9c-2.206 0-4-1.794-4-4s1.794-4 4-4 4 1.794 4 4-1.794 4-4 4zm0-6c-1.103 0-2 .897-2 2s.897 2 2 2 2-.897 2-2-.897-2-2-2z"/><path d="m48 42h2v2h-2z"/><path d="m48 46h2v2h-2z"/><path d="m50 44h2v2h-2z"/><path d="m46 44h2v2h-2z"/><path d="m59 63c-2.206 0-4-1.794-4-4s1.794-4 4-4 4 1.794 4 4-1.794 4-4 4zm0-6c-1.103 0-2 .897-2 2s.897 2 2 2 2-.897 2-2-.897-2-2-2z"/></svg>