<svg id="Layer_3" enable-background="new 0 0 64 64" height="512" viewBox="0 0 64 64" width="512" xmlns="http://www.w3.org/2000/svg"><path d="m2 2h30c16.569 0 30 13.431 30 30 0 16.569-13.431 30-30 30h-30" fill="#c16b3f"/><path d="m18 8h14c13.255 0 24 10.745 24 24 0 13.255-10.745 24-24 24h-14" fill="#e39854"/><path d="m8 23h10v18h-10z" fill="#c1c8d1"/><path d="m2 21h6v22h-6z" fill="#59ac98"/><path d="m33 21h-15v22h15c6.075 0 11-4.925 11-11 0-6.075-4.925-11-11-11z" fill="#59ac98"/><path d="m18 21v14.556c1.432.283 2.938.444 4.5.444 9.113 0 16.5-5.149 16.5-11.5 0-.633-.093-1.25-.234-1.855-1.678-1.036-3.649-1.645-5.766-1.645z" fill="#70ce90"/><path d="m41.485 25h-13.485v6h15.95c-.205-2.268-1.093-4.34-2.465-6z" fill="#c7e2fc"/><path d="m32 63h-30v-2h30c15.991 0 29-13.01 29-29 0-15.991-13.009-29-29-29h-30v-2h30c17.093 0 31 13.907 31 31 0 17.094-13.907 31-31 31z"/><path d="m8 44h-6c-.552 0-1-.447-1-1v-22c0-.552.448-1 1-1h6c.552 0 1 .448 1 1v22c0 .553-.448 1-1 1zm-5-2h4v-20h-4z"/><path d="m8 22h10v2h-10z"/><path d="m8 40h10v2h-10z"/><path d="m44 32h-16c-.552 0-1-.448-1-1v-6c0-.552.448-1 1-1h13v2h-12v4h15z"/><path d="m32 57h-14v-2h14c12.682 0 23-10.317 23-23 0-12.682-10.318-23-23-23h-14v-2h14c13.785 0 25 11.215 25 25s-11.215 25-25 25z"/><path d="m1 11h19v2h-19z"/><path d="m5 15h2v2h-2z"/><path d="m9 15h15v2h-15z"/><path d="m1 51h19v2h-19z"/><path d="m5 47h2v2h-2z"/><path d="m9 47h15v2h-15z"/><path d="m33 44h-15c-.552 0-1-.447-1-1v-22c0-.552.448-1 1-1h15c6.617 0 12 5.383 12 12s-5.383 12-12 12zm-14-2h14c5.514 0 10-4.486 10-10s-4.486-10-10-10h-14z"/><path d="m40 14h2v2h-2z"/><path d="m36 14h2v2h-2z"/><path d="m38 12h2v2h-2z"/><path d="m38 16h2v2h-2z"/><path d="m40 48h2v2h-2z"/><path d="m36 48h2v2h-2z"/><path d="m38 46h2v2h-2z"/><path d="m38 50h2v2h-2z"/><path d="m59 9c-2.206 0-4-1.794-4-4s1.794-4 4-4 4 1.794 4 4-1.794 4-4 4zm0-6c-1.103 0-2 .897-2 2s.897 2 2 2 2-.897 2-2-.897-2-2-2z"/><path d="m59 63c-2.206 0-4-1.794-4-4s1.794-4 4-4 4 1.794 4 4-1.794 4-4 4zm0-6c-1.103 0-2 .897-2 2s.897 2 2 2 2-.897 2-2-.897-2-2-2z"/></svg>