<svg id="Layer_3" enable-background="new 0 0 64 64" height="512" viewBox="0 0 64 64" width="512" xmlns="http://www.w3.org/2000/svg"><circle cx="60" cy="18" fill="#59ac98" r="2"/><circle cx="51" cy="26" fill="#59ac98" r="3"/><circle cx="52" cy="8" fill="#976947" r="6"/><path d="m47.115 4.524c.259 1.959 1.918 3.476 3.947 3.476 2.209 0 4-1.791 4-4 0-.454-.092-.883-.231-1.29-.843-.452-1.807-.71-2.831-.71-2.017 0-3.797.998-4.885 2.524z" fill="#59ac98"/><path d="m6 56v-21c0-7.18 5.82-13 13-13 7.18 0 13 5.82 13 13v21" fill="#a8b0bc"/><path d="m4 56h13v6h-13z" fill="#4472b2"/><path d="m60 62c0-12.703-10.297-23-23-23s-23 10.297-23 23" fill="#c1c8d1"/><path d="m14.354 58c-.228 1.3-.354 2.635-.354 4h46c0-1.365-.126-2.7-.354-4z" fill="#fadfb2"/><path d="m6.634 31c-.408 1.261-.634 2.603-.634 4h26c0-1.397-.226-2.739-.634-4z" fill="#fadfb2"/><g fill="#f9d18b"><path d="m25 50h4v4h-4z"/><path d="m35 50h4v4h-4z"/><path d="m45 50h4v4h-4z"/></g><path d="m23 12h10v6h-10z" fill="#2d4d83"/><path d="m19 8h10v6h-10z" fill="#4472b2"/><path d="m1 61h62v2h-62z"/><path d="m61 62h-2c0-12.131-9.869-22-22-22s-22 9.869-22 22h-2c0-13.233 10.767-24 24-24s24 10.767 24 24z"/><path d="m14 57h46v2h-46z"/><path d="m5 62h-2v-6c0-.553.447-1 1-1h11v2h-10z"/><path d="m7 56h-2v-21c0-7.72 6.28-14 14-14s14 6.28 14 14v5h-2v-5c0-6.617-5.383-12-12-12s-12 5.383-12 12z"/><path d="m6 34h26v2h-26z"/><path d="m29 55h-4c-.553 0-1-.447-1-1v-4c0-.553.447-1 1-1h4c.553 0 1 .447 1 1v4c0 .553-.447 1-1 1zm-3-2h2v-2h-2z"/><path d="m39 55h-4c-.553 0-1-.447-1-1v-4c0-.553.447-1 1-1h4c.553 0 1 .447 1 1v4c0 .553-.447 1-1 1zm-3-2h2v-2h-2z"/><path d="m49 55h-4c-.553 0-1-.447-1-1v-4c0-.553.447-1 1-1h4c.553 0 1 .447 1 1v4c0 .553-.447 1-1 1zm-3-2h2v-2h-2z"/><path d="m52 15c-3.859 0-7-3.14-7-7s3.141-7 7-7 7 3.14 7 7-3.141 7-7 7zm0-12c-2.757 0-5 2.243-5 5s2.243 5 5 5 5-2.243 5-5-2.243-5-5-5z"/><path d="m41 7h22v2h-22z"/><path d="m18 5h2v20h-2z"/><path d="m29 15h-10c-.553 0-1-.448-1-1v-6c0-.552.447-1 1-1h10c.553 0 1 .448 1 1v6c0 .552-.447 1-1 1zm-9-2h8v-4h-8z"/><path d="m33 19h-10c-.553 0-1-.448-1-1v-4h2v3h8v-4h-3v-2h4c.553 0 1 .448 1 1v6c0 .552-.447 1-1 1z"/><path d="m7 30h24v2h-24z"/><path d="m60 21c-1.654 0-3-1.346-3-3s1.346-3 3-3 3 1.346 3 3-1.346 3-3 3zm0-4c-.552 0-1 .449-1 1s.448 1 1 1 1-.449 1-1-.448-1-1-1z"/><path d="m51 30c-2.206 0-4-1.794-4-4s1.794-4 4-4 4 1.794 4 4-1.794 4-4 4zm0-6c-1.103 0-2 .897-2 2s.897 2 2 2 2-.897 2-2-.897-2-2-2z"/></svg>