<svg id="Layer_3" enable-background="new 0 0 64 64" height="512" viewBox="0 0 64 64" width="512" xmlns="http://www.w3.org/2000/svg"><path d="m59 55h3v-14l-10.158-19.392c-.518-.989-1.541-1.608-2.657-1.608h-11.185c-1.657 0-3 1.343-3 3v21h-33v11h3" fill="#669e4f"/><path d="m2 47.309c4.251 1.723 8.994 2.691 14 2.691 18.225 0 33-12.76 33-28.5 0-.503-.016-1.003-.046-1.5h-10.954c-1.657 0-3 1.343-3 3v21h-33z" fill="#78b75b"/><path d="m53.095 24h-14.095v12h20.381z" fill="#ebf7fe"/><path d="m52 40v4h10v-3l-.524-1z" fill="#e39854"/><g fill="#4d5d7a"><circle cx="12" cy="55" r="7"/><circle cx="32" cy="55" r="7"/><circle cx="52" cy="55" r="7"/></g><circle cx="12" cy="55" fill="#8892a0" r="3"/><circle cx="32" cy="55" fill="#8892a0" r="3"/><circle cx="52" cy="55" fill="#8892a0" r="3"/><path d="m29 27c0 6.075-4.925 11-11 11s-11-4.925-11-11" fill="#c1c8d1"/><ellipse cx="18" cy="27" fill="#a8b0bc" rx="11" ry="3"/><path d="m12 63c-4.411 0-8-3.589-8-8s3.589-8 8-8 8 3.589 8 8-3.589 8-8 8zm0-14c-3.309 0-6 2.691-6 6s2.691 6 6 6 6-2.691 6-6-2.691-6-6-6z"/><path d="m12 59c-2.206 0-4-1.794-4-4s1.794-4 4-4 4 1.794 4 4-1.794 4-4 4zm0-6c-1.103 0-2 .897-2 2s.897 2 2 2 2-.897 2-2-.897-2-2-2z"/><path d="m32 63c-4.411 0-8-3.589-8-8s3.589-8 8-8 8 3.589 8 8-3.589 8-8 8zm0-14c-3.309 0-6 2.691-6 6s2.691 6 6 6 6-2.691 6-6-2.691-6-6-6z"/><path d="m32 59c-2.206 0-4-1.794-4-4s1.794-4 4-4 4 1.794 4 4-1.794 4-4 4zm0-6c-1.103 0-2 .897-2 2s.897 2 2 2 2-.897 2-2-.897-2-2-2z"/><path d="m52 63c-4.411 0-8-3.589-8-8s3.589-8 8-8 8 3.589 8 8-3.589 8-8 8zm0-14c-3.309 0-6 2.691-6 6s2.691 6 6 6 6-2.691 6-6-2.691-6-6-6z"/><path d="m52 59c-2.206 0-4-1.794-4-4s1.794-4 4-4 4 1.794 4 4-1.794 4-4 4zm0-6c-1.103 0-2 .897-2 2s.897 2 2 2 2-.897 2-2-.897-2-2-2z"/><path d="m62 56h-3v-2h2v-12.754l-10.044-19.174c-.347-.661-1.025-1.072-1.771-1.072h-11.185c-1.103 0-2 .897-2 2v21c0 .552-.447 1-1 1h-32v9h2v2h-3c-.553 0-1-.448-1-1v-11c0-.552.447-1 1-1h32v-20c0-2.206 1.794-4 4-4h11.185c1.493 0 2.851.821 3.543 2.144l10.158 19.392c.075.143.114.302.114.464v14c0 .552-.447 1-1 1z"/><path d="m19 54h6v2h-6z"/><path d="m39 54h6v2h-6z"/><path d="m59 37h-20c-.553 0-1-.448-1-1v-12c0-.552.447-1 1-1h14v2h-13v10h19z"/><path d="m62 45h-10c-.553 0-1-.448-1-1v-4c0-.552.447-1 1-1h10v2h-9v2h9z"/><path d="m18 31c-4.457 0-12-.842-12-4s7.543-4 12-4 12 .842 12 4-7.543 4-12 4zm0-6c-6.043 0-9.727 1.33-10.006 2.042.279.628 3.963 1.958 10.006 1.958 5.926 0 9.582-1.278 9.986-2-.404-.722-4.06-2-9.986-2z"/><path d="m18 39c-6.617 0-12-5.383-12-12h2c0 5.514 4.486 10 10 10s10-4.486 10-10h2c0 6.617-5.383 12-12 12z"/><path d="m18 15c-1.654 0-3-1.346-3-3s1.346-3 3-3 3 1.346 3 3-1.346 3-3 3zm0-4c-.552 0-1 .449-1 1s.448 1 1 1 1-.449 1-1-.448-1-1-1z"/><path d="m10.901 18h10.198v2h-10.198z" transform="matrix(.196 -.981 .981 .196 -5.771 30.959)"/><path d="m19 13.901h2v10.198h-2z" transform="matrix(.981 -.196 .196 .981 -3.338 4.291)"/><path d="m15 38h2v6h-2z"/><path d="m19 38h2v6h-2z"/><path d="m42 14h-2c0-6.065-4.935-11-11-11v-2c7.168 0 13 5.832 13 13z"/><path d="m38 14h-2c0-3.86-3.141-7-7-7v-2c4.963 0 9 4.038 9 9z"/><path d="m34 14h-2c0-1.654-1.346-3-3-3v-2c2.757 0 5 2.243 5 5z"/><path d="m27 19c-1.654 0-3-1.346-3-3s1.346-3 3-3 3 1.346 3 3-1.346 3-3 3zm0-4c-.552 0-1 .449-1 1s.448 1 1 1 1-.449 1-1-.448-1-1-1z"/></svg>