<svg id="Layer_3" enable-background="new 0 0 64 64" height="512" viewBox="0 0 64 64" width="512" xmlns="http://www.w3.org/2000/svg"><circle cx="11" cy="5" fill="#a1cdfb" r="3"/><circle cx="53" cy="5" fill="#a1cdfb" r="3"/><path d="m30 14v-6h4v6" fill="#4472b2"/><path d="m28 22v-8h8v8" fill="#4472b2"/><path d="m28 14h8v4h-8z" fill="#c1c8d1"/><path d="m22 22h20v20h-20z" fill="#a8b0bc"/><path d="m22 22v16c8.673 0 15.717-7.121 15.976-16z" fill="#c1c8d1"/><path d="m22 30h20v4h-20z" fill="#4472b2"/><path d="m1 61h62v2h-62z"/><path d="m42 43h-20c-.553 0-1-.448-1-1v-20c0-.552.447-1 1-1h20c.553 0 1 .448 1 1v20c0 .552-.447 1-1 1zm-19-2h18v-18h-18z"/><path d="m22 29h20v2h-20z"/><path d="m22 33h20v2h-20z"/><path d="m25 22h2v8h-2z"/><path d="m29 22h2v8h-2z"/><path d="m33 22h2v8h-2z"/><path d="m37 22h2v8h-2z"/><path d="m25 34h2v8h-2z"/><path d="m29 34h2v8h-2z"/><path d="m33 34h2v8h-2z"/><path d="m37 34h2v8h-2z"/><path d="m31 42h2v20h-2z"/><path d="m37.5 41.692h1.999v20.616h-1.999z" transform="matrix(.97 -.243 .243 .97 -11.462 10.89)"/><path d="m44.5 40.587h2v22.825h-2z" transform="matrix(.876 -.482 .482 .876 -19.428 28.364)"/><path d="m15.192 51h20.616v1.999h-20.616z" transform="matrix(.243 -.97 .97 .243 -31.135 64.113)"/><path d="m7.087 51h22.825v2h-22.825z" transform="matrix(.482 -.876 .876 .482 -35.978 43.143)"/><path d="m37 22h-2v-7h-6v7h-2v-8c0-.552.447-1 1-1h8c.553 0 1 .448 1 1z"/><path d="m35 14h-2v-5h-2v5h-2v-6c0-.552.447-1 1-1h4c.553 0 1 .448 1 1z"/><path d="m31 1h2v7h-2z"/><path d="m28 17h8v2h-8z"/><path d="m13 20h2v2h-2z"/><path d="m9 20h2v2h-2z"/><path d="m11 18h2v2h-2z"/><path d="m11 22h2v2h-2z"/><path d="m1 36h6v2h-6z"/><path d="m3 34h2v6h-2z"/><path d="m11 9c-2.206 0-4-1.794-4-4s1.794-4 4-4 4 1.794 4 4-1.794 4-4 4zm0-6c-1.103 0-2 .897-2 2s.897 2 2 2 2-.897 2-2-.897-2-2-2z"/><path d="m49 20h2v2h-2z"/><path d="m53 20h2v2h-2z"/><path d="m51 18h2v2h-2z"/><path d="m51 22h2v2h-2z"/><path d="m57 36h6v2h-6z"/><path d="m59 34h2v6h-2z"/><path d="m53 9c-2.206 0-4-1.794-4-4s1.794-4 4-4 4 1.794 4 4-1.794 4-4 4zm0-6c-1.103 0-2 .897-2 2s.897 2 2 2 2-.897 2-2-.897-2-2-2z"/></svg>