<svg id="Layer_3" enable-background="new 0 0 64 64" height="512" viewBox="0 0 64 64" width="512" xmlns="http://www.w3.org/2000/svg"><path d="m30 22.099c-10.107 1.003-18 9.53-18 19.901 0 11.046 8.954 20 20 20s20-8.954 20-20c0-10.371-7.893-18.898-18-19.901" fill="#674025"/><path d="m45 37.5c0-6.35-3.393-11.893-8.455-14.96-.832-.194-1.677-.355-2.545-.441h-4c-10.107 1.003-18 9.53-18 19.901 0 1.565.198 3.081.538 4.542 3.066 5.063 8.611 8.458 14.962 8.458 9.665 0 17.5-7.835 17.5-17.5z" fill="#976947"/><path d="m32 30c-1.105 0-2-.895-2-2v-24c0-1.105.895-2 2-2 1.105 0 2 .895 2 2v24c0 1.105-.895 2-2 2z" fill="#b8b9b3"/><path d="m38 9h12v8h-12z" fill="#2d4d83"/><path d="m34 5h12v8h-12z" fill="#4472b2"/><g fill="#c18e59"><circle cx="19" cy="44" r="3"/><circle cx="23" cy="32" r="3"/><circle cx="45" cy="48" r="2"/><circle cx="42" cy="33" r="2"/></g><circle cx="36" cy="54" fill="#f5b953" r="4"/><circle cx="32" cy="41" fill="#f5b953" r="4"/><path d="m32 63c-11.579 0-21-9.421-21-21 0-10.843 8.126-19.827 18.901-20.896l.197 1.99c-9.747.968-17.098 9.095-17.098 18.906 0 10.477 8.523 19 19 19s19-8.523 19-19c0-9.811-7.351-17.938-17.099-18.906l.197-1.99c10.776 1.069 18.902 10.053 18.902 20.896 0 11.579-9.421 21-21 21z"/><path d="m32 31c-1.654 0-3-1.346-3-3v-24c0-1.654 1.346-3 3-3s3 1.346 3 3v24c0 1.654-1.346 3-3 3zm0-28c-.552 0-1 .449-1 1v24c0 .551.448 1 1 1s1-.449 1-1v-24c0-.551-.448-1-1-1z"/><path d="m46 14h-12c-.553 0-1-.448-1-1v-8c0-.552.447-1 1-1h12c.553 0 1 .448 1 1v8c0 .552-.447 1-1 1zm-11-2h10v-6h-10z"/><path d="m50 18h-12c-.553 0-1-.448-1-1v-4h2v3h10v-6h-3v-2h4c.553 0 1 .448 1 1v8c0 .552-.447 1-1 1z"/><path d="m36 59c-2.757 0-5-2.243-5-5s2.243-5 5-5 5 2.243 5 5-2.243 5-5 5zm0-8c-1.654 0-3 1.346-3 3s1.346 3 3 3 3-1.346 3-3-1.346-3-3-3z"/><path d="m45 51c-1.654 0-3-1.346-3-3s1.346-3 3-3 3 1.346 3 3-1.346 3-3 3zm0-4c-.552 0-1 .448-1 1s.448 1 1 1 1-.448 1-1-.448-1-1-1z"/><path d="m23 36v-2c1.103 0 2-.897 2-2s-.897-2-2-2-2 .897-2 2h-2c0-2.206 1.794-4 4-4s4 1.794 4 4-1.794 4-4 4z"/><path d="m19 48c-2.206 0-4-1.794-4-4s1.794-4 4-4 4 1.794 4 4h-2c0-1.103-.897-2-2-2s-2 .897-2 2 .897 2 2 2z"/><path d="m42 36c-1.654 0-3-1.346-3-3s1.346-3 3-3 3 1.346 3 3-1.346 3-3 3zm0-4c-.552 0-1 .449-1 1 0 .552.448 1 1 1s1-.448 1-1c0-.551-.448-1-1-1z"/><path d="m32 46c-2.757 0-5-2.243-5-5s2.243-5 5-5 5 2.243 5 5h-2c0-1.654-1.346-3-3-3s-3 1.346-3 3 1.346 3 3 3z"/><path d="m53 18h2v2h-2z"/><path d="m57 18h2v2h-2z"/><path d="m55 16h2v2h-2z"/><path d="m55 20h2v2h-2z"/><path d="m57 34h6v2h-6z"/><path d="m59 32h2v6h-2z"/><path d="m1 3h2v2h-2z"/><path d="m5 3h2v2h-2z"/><path d="m3 1h2v2h-2z"/><path d="m3 5h2v2h-2z"/><path d="m5 19h6v2h-6z"/><path d="m7 17h2v6h-2z"/></svg>