<svg id="Layer_3" enable-background="new 0 0 64 64" height="512" viewBox="0 0 64 64" width="512" xmlns="http://www.w3.org/2000/svg"><path d="m56 62h-48c-3.314 0-6-2.686-6-6v-48c0-3.314 2.686-6 6-6h48c3.314 0 6 2.686 6 6v48c0 3.314-2.686 6-6 6z" fill="#976947"/><path d="m54 56h-44c-1.105 0-2-.895-2-2v-44c0-1.105.895-2 2-2h44c1.105 0 2 .895 2 2v44c0 1.105-.895 2-2 2z" fill="#4d5d7a"/><path d="m8 10v35.87c2.699.731 5.549 1.13 8.5 1.13 16.845 0 30.5-12.76 30.5-28.5 0-3.709-.767-7.25-2.146-10.5h-34.854c-1.105 0-2 .895-2 2z" fill="#8892a0"/><circle cx="24" cy="36" fill="#78b75b" r="2"/><circle cx="30" cy="24" fill="#78b75b" r="2"/><path d="m56 63h-48c-3.86 0-7-3.14-7-7v-48c0-3.86 3.14-7 7-7h48c3.86 0 7 3.14 7 7v48c0 3.86-3.14 7-7 7zm-48-60c-2.757 0-5 2.243-5 5v48c0 2.757 2.243 5 5 5h48c2.757 0 5-2.243 5-5v-48c0-2.757-2.243-5-5-5z"/><path d="m54 57h-44c-1.654 0-3-1.346-3-3v-44c0-1.654 1.346-3 3-3h44c1.654 0 3 1.346 3 3v44c0 1.654-1.346 3-3 3zm-44-48c-.551 0-1 .449-1 1v44c0 .551.449 1 1 1h44c.551 0 1-.449 1-1v-44c0-.551-.449-1-1-1z"/><path d="m26.166 36.82-.331-1.973c5.311-.89 9.165-5.452 9.165-10.847 0-6.065-4.935-11-11-11s-11 4.935-11 11c0 5.395 3.854 9.957 9.166 10.848l-.331 1.973c-6.278-1.054-10.835-6.446-10.835-12.821 0-7.168 5.832-13 13-13s13 5.832 13 13c0 6.375-4.557 11.767-10.834 12.82z"/><path d="m24 39c-1.654 0-3-1.346-3-3s1.346-3 3-3 3 1.346 3 3-1.346 3-3 3zm0-4c-.551 0-1 .449-1 1s.449 1 1 1 1-.449 1-1-.449-1-1-1z"/><path d="m30 27c-1.654 0-3-1.346-3-3s1.346-3 3-3 3 1.346 3 3-1.346 3-3 3zm0-4c-.551 0-1 .449-1 1s.449 1 1 1 1-.449 1-1-.449-1-1-1z"/><path d="m24 31c-3.86 0-7-3.14-7-7s3.14-7 7-7c2.978 0 5.636 1.889 6.613 4.7l-1.889.657c-.698-2.008-2.597-3.357-4.724-3.357-2.757 0-5 2.243-5 5s2.243 5 5 5c2.116 0 4.011-1.339 4.716-3.333l1.886.666c-.987 2.792-3.64 4.667-6.602 4.667z"/><path d="m52 53h-6c-.552 0-1-.448-1-1v-6c0-.552.448-1 1-1h6c.552 0 1 .448 1 1v6c0 .552-.448 1-1 1zm-5-2h4v-4h-4z"/><path d="m52 43h-6c-.552 0-1-.448-1-1v-6c0-.552.448-1 1-1h6c.552 0 1 .448 1 1v6c0 .552-.448 1-1 1zm-5-2h4v-4h-4z"/><path d="m52 33h-6c-.552 0-1-.448-1-1v-6c0-.552.448-1 1-1h6c.552 0 1 .448 1 1v6c0 .552-.448 1-1 1zm-5-2h4v-4h-4z"/><path d="m43 40h-6c-.265 0-.52-.105-.707-.293l-10-10 1.414-1.414 9.707 9.707h5.586z"/><path d="m11 51h16v2h-16z"/><path d="m29 51h2v2h-2z"/><path d="m43 11h10v2h-10z"/><path d="m39 11h2v2h-2z"/></svg>