<svg id="Layer_3" enable-background="new 0 0 64 64" height="512" viewBox="0 0 64 64" width="512" xmlns="http://www.w3.org/2000/svg"><path d="m2 58h60v4h-60z" fill="#a8b0bc"/><path d="m28 52h-20c-2.209 0-4 1.791-4 4v2h28v-2c0-2.209-1.791-4-4-4z" fill="#c18e59"/><path d="m54 44h2c2.209 0 4 1.791 4 4v10h-24v-10c0-2.209 1.791-4 4-4h2" fill="#c18e59"/><path d="m42 40h12v8h-12z" fill="#a8b0bc"/><path d="m42 6h-38c-1.105 0-2 .895-2 2 0 1.105.895 2 2 2h38" fill="#c18e59"/><path d="m50 40v-27h-4v27" fill="#c18e59"/><circle cx="48" cy="8" fill="#a8b0bc" r="6"/><circle cx="48" cy="8" fill="#fff" r="2"/><path d="m14 10v10h4v-10" fill="#59ac98"/><path d="m28 26v13c0 1.657-1.343 3-3 3-1.657 0-3-1.343-3-3v-13" fill="#c7e2fc"/><path d="m25 42c-1.657 0-3-1.343-3-3v-5h6v5c0 1.657-1.343 3-3 3z" fill="#e47c6e"/><path d="m10 26v13c0 1.657-1.343 3-3 3-1.657 0-3-1.343-3-3v-13" fill="#c7e2fc"/><path d="m7 42c-1.657 0-3-1.343-3-3v-5h6v5c0 1.657-1.343 3-3 3z" fill="#e47c6e"/><path d="m62 63h-60c-.553 0-1-.447-1-1v-4c0-.553.447-1 1-1h60c.553 0 1 .447 1 1v4c0 .553-.447 1-1 1zm-59-2h58v-2h-58z"/><path d="m32 59h-28c-.553 0-1-.447-1-1v-2c0-2.757 2.243-5 5-5h20c2.757 0 5 2.243 5 5v2c0 .553-.447 1-1 1zm-27-2h26v-1c0-1.654-1.346-3-3-3h-20c-1.654 0-3 1.346-3 3z"/><path d="m60 59h-24c-.553 0-1-.447-1-1v-10c0-2.757 2.243-5 5-5h2v2h-2c-1.654 0-3 1.346-3 3v9h22v-9c0-1.654-1.346-3-3-3h-2v-2h2c2.757 0 5 2.243 5 5v10c0 .553-.447 1-1 1z"/><path d="m54 49h-12c-.553 0-1-.447-1-1v-8c0-.553.447-1 1-1h12c.553 0 1 .447 1 1v8c0 .553-.447 1-1 1zm-11-2h10v-6h-10z"/><path d="m48 15c-3.859 0-7-3.141-7-7s3.141-7 7-7 7 3.141 7 7-3.141 7-7 7zm0-12c-2.757 0-5 2.243-5 5s2.243 5 5 5 5-2.243 5-5-2.243-5-5-5z"/><path d="m45 13h2v27h-2z"/><path d="m49 13h2v27h-2z"/><path d="m48 11c-1.654 0-3-1.346-3-3s1.346-3 3-3 3 1.346 3 3-1.346 3-3 3zm0-4c-.552 0-1 .448-1 1s.448 1 1 1 1-.448 1-1-.448-1-1-1z"/><path d="m42 11h-38c-1.654 0-3-1.346-3-3s1.346-3 3-3h38v2h-38c-.552 0-1 .448-1 1s.448 1 1 1h38z"/><path d="m18 21h-4c-.553 0-1-.447-1-1v-10h2v9h2v-9h2v10c0 .553-.447 1-1 1z"/><path d="m7 43c-2.206 0-4-1.794-4-4v-13h2v13c0 1.103.897 2 2 2s2-.897 2-2v-13h2v13c0 2.206-1.794 4-4 4z"/><path d="m1 25h12v2h-12z"/><path d="m4 33h6v2h-6z"/><path d="m25 43c-2.206 0-4-1.794-4-4v-13h2v13c0 1.103.897 2 2 2s2-.897 2-2v-13h2v13c0 2.206-1.794 4-4 4z"/><path d="m19 25h12v2h-12z"/><path d="m22 33h6v2h-6z"/><path d="m15 20h2v10h-2z"/><path d="m10 29h12v2h-12z"/></svg>