<svg id="Layer_3" enable-background="new 0 0 64 64" height="512" viewBox="0 0 64 64" width="512" xmlns="http://www.w3.org/2000/svg"><path d="m25 48c-2.608 3.912-4 8.509-4 13.211v.789h22v-.789c0-4.702-1.392-9.299-4-13.211" fill="#4d5d7a"/><path d="m37 62v-10h-10v10" fill="#8892a0"/><path d="m25 40h14v8h-14z" fill="#8892a0"/><path d="m11 26v-3c0-11.598 9.402-21 21-21 11.598 0 21 9.402 21 21v3c0-3.866-3.134-7-7-7s-7 3.134-7 7c0-3.866-3.134-7-7-7s-7 3.134-7 7c0-3.866-3.134-7-7-7s-7 3.134-7 7z" fill="#e47c6e"/><path d="m39 26c0-3.866-3.134-7-7-7s-7 3.134-7 7v-3.677c0-7.338 2.446-14.467 6.951-20.26 0 0 .049-.063.049-.063l.049.063c4.505 5.792 6.951 12.921 6.951 20.26z" fill="#c66b60"/><path d="m26 26h-2c0-3.309-2.691-6-6-6s-6 2.691-6 6h-2c0-4.411 3.589-8 8-8s8 3.589 8 8z"/><path d="m40 26h-2c0-3.309-2.691-6-6-6s-6 2.691-6 6h-2c0-4.411 3.589-8 8-8s8 3.589 8 8z"/><path d="m54 26h-2c0-3.309-2.691-6-6-6s-6 2.691-6 6h-2c0-4.411 3.589-8 8-8s8 3.589 8 8z"/><path d="m32 41c-.379 0-.725-.214-.895-.553l-7-14c-.069-.138-.105-.292-.105-.447v-3.677c0-7.523 2.543-14.937 7.162-20.874.189-.244.505-.417.813-.417h.001c.308 0 .623.11.812.353l.049.062c4.62 5.939 7.163 13.353 7.163 20.876v3.677c0 .155-.036.309-.105.447l-7 14c-.17.339-.516.553-.895.553zm-6-15.236 6 12 6-12v-3.441c0-6.667-2.123-13.244-6-18.655-3.877 5.41-6 11.986-6 18.655z"/><path d="m39 49h-14c-.552 0-1-.447-1-1v-8c0-.553.448-1 1-1h14c.552 0 1 .447 1 1v8c0 .553-.448 1-1 1zm-13-2h12v-6h-12z"/><path d="m43 63h-22c-.552 0-1-.447-1-1v-.789c0-4.916 1.441-9.676 4.168-13.766l1.664 1.109c-2.468 3.701-3.791 8-3.831 12.445h19.998c-.041-4.445-1.363-8.744-3.831-12.445l1.664-1.109c2.727 4.09 4.168 8.85 4.168 13.766v.789c0 .553-.448 1-1 1z"/><path d="m38 62h-2v-9h-8v9h-2v-10c0-.553.448-1 1-1h10c.552 0 1 .447 1 1z"/><path d="m39.707 40.707-1.414-1.414 13.707-13.707v-2.586c0-11.028-8.972-20-20-20s-20 8.972-20 20v2.586l13.707 13.707-1.414 1.414-14-14c-.188-.187-.293-.442-.293-.707v-3c0-12.131 9.869-22 22-22s22 9.869 22 22v3c0 .265-.105.52-.293.707z"/></svg>