<svg id="Layer_3" enable-background="new 0 0 64 64" height="512" viewBox="0 0 64 64" width="512" xmlns="http://www.w3.org/2000/svg"><path d="m17.221 14c-.131 1.329-.221 2.662-.221 4v26h14v-26c0-1.338-.09-2.671-.221-4z" fill="#c7e2fc"/><path d="m17 18c-1.657 0-3 1.343-3 3v3h6v-3c0-1.657-1.343-3-3-3z" fill="#e39854"/><path d="m14 24h6v4h-6z" fill="#c1c8d1"/><path d="m14 28h6v23h-6z" fill="#a1cdfb"/><path d="m34 24h10v20h-10z" fill="#c7e2fc"/><path d="m25.385 29c-.915 3.16-1.385 6.439-1.385 9.74v23.26h16v-23.26c0-3.302-.47-6.58-1.385-9.74z" fill="#a1cdfb"/><path d="m24 56h16v6h-16z" fill="#e39854"/><path d="m8 58h18v-14h-6l-12 10z" fill="#c1c8d1"/><path d="m56 58h-18v-14h6l12 10z" fill="#c1c8d1"/><path d="m38 54h18v4h-18z" fill="#4472b2"/><path d="m8 54h18v4h-18z" fill="#4472b2"/><path d="m39.67 34h-7.67v4h7.974c-.029-1.34-.122-2.676-.304-4z" fill="#c1c8d1"/><path d="m34 22 .909 2h9.091v-2c0-.675-.086-1.342-.21-2h-9.58c-.124.658-.21 1.325-.21 2z" fill="#b8b9b3"/><path d="m17.221 14h13.558c-.132-1.343-.328-2.677-.593-4h-12.373c-.264 1.323-.46 2.657-.592 4z" fill="#b8b9b3"/><g fill="#e39854"><path d="m38.882 30c-.372-1.444-.83-2.868-1.386-4.258l-.011-.028c-.897-2.243-3.069-3.714-5.485-3.714s-4.588 1.471-5.486 3.714l-.011.028c-.556 1.39-1.013 2.814-1.386 4.258z"/><path d="m43.79 20c-.236-1.255-.671-2.468-1.334-3.573l-1.456-2.427h-4l-1.457 2.427c-.662 1.104-1.097 2.318-1.334 3.573z"/><path d="m24 2c-2.374 0-4.467 1.557-5.149 3.831l-.127.422c-.37 1.234-.659 2.487-.911 3.747h12.373c-.252-1.26-.541-2.513-.911-3.747l-.127-.422c-.681-2.274-2.774-3.831-5.148-3.831z"/></g><path d="m59 12c1.657 0 3-1.343 3-3s-1.343-3-3-3c-.817 0-1.557.329-2.098.859.061-.277.098-.563.098-.859 0-2.209-1.791-4-4-4s-4 1.791-4 4c0 .296.037.582.098.859-.541-.53-1.281-.859-2.098-.859-1.657 0-3 1.343-3 3s1.343 3 3 3z" fill="#a1cdfb"/><path d="m14 33.354c-.733-.83-1.805-1.354-3-1.354-2.209 0-4 1.791-4 4 0 .296.037.582.098.859-.541-.53-1.281-.859-2.098-.859-1.657 0-3 1.343-3 3s1.343 3 3 3h9" fill="#a1cdfb"/><path d="m26 59h-18c-.552 0-1-.447-1-1v-4c0-.297.132-.578.36-.769l12-10c.18-.149.406-.231.64-.231h6c.552 0 1 .447 1 1v14c0 .553-.448 1-1 1zm-17-2h16v-12h-4.638l-11.362 9.469z"/><path d="m56 59h-18c-.552 0-1-.447-1-1v-14c0-.553.448-1 1-1h6c.234 0 .46.082.64.231l12 10c.228.191.36.472.36.769v4c0 .553-.448 1-1 1zm-17-2h16v-2.531l-11.362-9.469h-4.638z"/><path d="m40 63h-16c-.552 0-1-.447-1-1v-4h2v3h14v-3h2v4c0 .553-.448 1-1 1z"/><path d="m41 44h-2v-5.26c0-4.345-.818-8.593-2.432-12.627-.76-1.902-2.549-3.113-4.568-3.113s-3.808 1.211-4.557 3.085c-1.625 4.062-2.443 8.311-2.443 12.655v5.26h-2v-5.26c0-4.601.866-9.099 2.575-13.369 1.066-2.667 3.584-4.371 6.425-4.371s5.359 1.704 6.414 4.343c1.72 4.299 2.586 8.797 2.586 13.397z"/><path d="m25 29h14v2h-14z"/><path d="m40 39h-8c-.552 0-1-.447-1-1v-4c0-.553.448-1 1-1h8v2h-7v2h7z"/><path d="m38 53h18v2h-18z"/><path d="m8 53h18v2h-18z"/><path d="m15 49h-2v-28c0-2.206 1.794-4 4-4s4 1.794 4 4v23h-2v-23c0-1.103-.897-2-2-2s-2 .897-2 2z"/><path d="m14 23h6v2h-6z"/><path d="m14 27h6v2h-6z"/><path d="m45 44h-2v-22c0-1.781-.484-3.53-1.401-5.058l-1.165-1.942h-2.867l-1.166 1.942c-.917 1.528-1.401 3.277-1.401 5.058h-2c0-2.145.583-4.249 1.686-6.087l1.457-2.428c.18-.3.506-.485.857-.485h4c.351 0 .677.185.857.485l1.457 2.428c1.103 1.838 1.686 3.942 1.686 6.087z"/><path d="m34 19h10v2h-10z"/><path d="m36 23h8v2h-8z"/><path d="m32 22h-2v-4c0-3.884-.566-7.739-1.682-11.46l-.126-.422c-.551-1.836-2.275-3.118-4.192-3.118s-3.641 1.282-4.191 3.118l-.127.422c-1.116 3.721-1.682 7.576-1.682 11.46h-2c0-4.078.594-8.127 1.766-12.034l.126-.422c.816-2.718 3.271-4.544 6.108-4.544s5.292 1.826 6.107 4.544l.126.422c1.173 3.907 1.767 7.956 1.767 12.034z"/><path d="m18 9h12v2h-12z"/><path d="m17 13h14v2h-14z"/><path d="m59 13h-12c-2.206 0-4-1.794-4-4s1.794-4 4-4c.367 0 .728.05 1.073.146.406-2.352 2.461-4.146 4.927-4.146s4.521 1.794 4.927 4.146c.345-.096.706-.146 1.073-.146 2.206 0 4 1.794 4 4s-1.794 4-4 4zm-12-6c-1.103 0-2 .897-2 2s.897 2 2 2h12c1.103 0 2-.897 2-2s-.897-2-2-2c-.524 0-1.021.204-1.397.573-.315.311-.797.376-1.184.161-.387-.214-.587-.656-.493-1.088.05-.23.074-.441.074-.646 0-1.654-1.346-3-3-3s-3 1.346-3 3c0 .205.024.416.075.646.094.432-.106.874-.493 1.088-.387.215-.868.149-1.184-.161-.377-.369-.874-.573-1.398-.573z"/><path d="m14 43h-9c-2.206 0-4-1.794-4-4s1.794-4 4-4c.367 0 .728.05 1.073.146.406-2.352 2.461-4.146 4.927-4.146 1.434 0 2.801.617 3.75 1.693l-1.5 1.322c-.569-.645-1.39-1.015-2.25-1.015-1.654 0-3 1.346-3 3 0 .205.024.416.075.646.094.432-.106.874-.493 1.088-.388.214-.868.148-1.184-.161-.377-.369-.874-.573-1.398-.573-1.103 0-2 .897-2 2s.897 2 2 2h9z"/><path d="m26 55h12v2h-12z"/></svg>