<svg id="Layer_3" enable-background="new 0 0 64 64" height="512" viewBox="0 0 64 64" width="512" xmlns="http://www.w3.org/2000/svg"><path d="m2 48h12v10h-12z" fill="#8892a0"/><path d="m2 48h12v4h-12z" fill="#4d5d7a"/><path d="m50 48h12v10h-12z" fill="#8892a0"/><path d="m50 48h12v4h-12z" fill="#4d5d7a"/><path d="m30 52h4v6h-4z" fill="#4d5d7a"/><path d="m18 36h28v16h-28z" fill="#8892a0"/><path d="m22 40h16v8h-16z" fill="#4d5d7a"/><path d="m2 2h60v30h-60z" fill="#4d5d7a"/><path d="m2 21.281c5.732 2.336 12.822 3.719 20.5 3.719 19.054 0 34.5-8.507 34.5-19 0-1.373-.27-2.71-.773-4h-54.227z" fill="#8892a0"/><g fill="#4472b2"><circle cx="56" cy="8" r="2"/><circle cx="8" cy="8" r="2"/><circle cx="8" cy="16" r="2"/><circle cx="15" cy="12" r="2"/></g><circle cx="32" cy="19" fill="#f5b953" r="7"/><path d="m25 19c0 1.878.744 3.58 1.948 4.837.501.106 1.02.163 1.552.163 4.142 0 7.5-3.358 7.5-7.5 0-1.411-.397-2.726-1.074-3.853-.891-.411-1.88-.647-2.926-.647-3.866 0-7 3.134-7 7z" fill="#f9d18b"/><path d="m62 33h-60c-.552 0-1-.448-1-1v-30c0-.552.448-1 1-1h60c.552 0 1 .448 1 1v30c0 .552-.448 1-1 1zm-59-2h58v-28h-58z"/><path d="m46 53h-28c-.552 0-1-.448-1-1v-16c0-.552.448-1 1-1h28c.552 0 1 .448 1 1v16c0 .552-.448 1-1 1zm-27-2h26v-14h-26z"/><path d="m32 27c-4.411 0-8-3.589-8-8s3.589-8 8-8 8 3.589 8 8-3.589 8-8 8zm0-14c-3.309 0-6 2.691-6 6s2.691 6 6 6 6-2.691 6-6-2.691-6-6-6z"/><path d="m20 18h24v2h-24z"/><path d="m56 11c-1.654 0-3-1.346-3-3s1.346-3 3-3 3 1.346 3 3-1.346 3-3 3zm0-4c-.551 0-1 .449-1 1s.449 1 1 1 1-.449 1-1-.449-1-1-1z"/><path d="m8 11c-1.654 0-3-1.346-3-3s1.346-3 3-3 3 1.346 3 3-1.346 3-3 3zm0-4c-.551 0-1 .449-1 1s.449 1 1 1 1-.449 1-1-.449-1-1-1z"/><path d="m8 19c-1.654 0-3-1.346-3-3s1.346-3 3-3 3 1.346 3 3-1.346 3-3 3zm0-4c-.551 0-1 .449-1 1s.449 1 1 1 1-.449 1-1-.449-1-1-1z"/><path d="m15 15c-1.654 0-3-1.346-3-3s1.346-3 3-3 3 1.346 3 3-1.346 3-3 3zm0-4c-.551 0-1 .449-1 1s.449 1 1 1 1-.449 1-1-.449-1-1-1z"/><path d="m41 39h2v2h-2z"/><path d="m41 43h2v2h-2z"/><path d="m41 47h2v2h-2z"/><path d="m38 49h-16c-.552 0-1-.448-1-1v-8c0-.552.448-1 1-1h16c.552 0 1 .448 1 1v8c0 .552-.448 1-1 1zm-15-2h14v-6h-14z"/><path d="m1 61h62v2h-62z"/><path d="m24 57h16v2h-16z"/><path d="m29 52h2v6h-2z"/><path d="m33 52h2v6h-2z"/><path d="m62 59h-12c-.552 0-1-.448-1-1v-10c0-.552.448-1 1-1h12c.552 0 1 .448 1 1v10c0 .552-.448 1-1 1zm-11-2h10v-8h-10z"/><path d="m50 51h12v2h-12z"/><path d="m14 59h-12c-.552 0-1-.448-1-1v-10c0-.552.448-1 1-1h12c.552 0 1 .448 1 1v10c0 .552-.448 1-1 1zm-11-2h10v-8h-10z"/><path d="m2 51h12v2h-12z"/></svg>