<svg id="Layer_3" enable-background="new 0 0 64 64" height="512" viewBox="0 0 64 64" width="512" xmlns="http://www.w3.org/2000/svg"><path d="m63 32c-7.683 0-15.052 3.052-20.485 8.485l-.272.272c-2.717 2.717-6.401 4.243-10.243 4.243-3.842 0-7.526-1.526-10.243-4.243l-.272-.272c-5.433-5.433-12.802-8.485-20.485-8.485 7.683 0 15.052-3.052 20.485-8.485l.272-.272c2.717-2.717 6.401-4.243 10.243-4.243 3.842 0 7.526 1.526 10.243 4.243l.272.272c5.433 5.433 12.802 8.485 20.485 8.485z" fill="#976947"/><path d="m21 35c10.138 0 18.861-4.227 22.784-10.298-.432-.383-.858-.776-1.269-1.187l-.272-.272c-2.717-2.717-6.401-4.243-10.243-4.243s-7.526 1.526-10.243 4.243l-.272.272c-4.22 4.22-9.609 6.995-15.405 8.028 4.165 2.171 9.328 3.457 14.92 3.457z" fill="#c18e59"/><circle cx="32" cy="32" fill="#59ac98" r="9"/><path d="m41 32c0-3.922-2.514-7.25-6.014-8.482-3.488 1.239-5.986 4.569-5.986 8.482s2.498 7.243 5.986 8.482c3.5-1.233 6.014-4.56 6.014-8.482z" fill="#70ce90"/><path d="m63 33c-8.006 0-15.532-3.117-21.192-8.778l-.272-.273c-2.548-2.547-5.934-3.949-9.536-3.949s-6.988 1.402-9.536 3.949l-.271.271c-5.661 5.663-13.187 8.78-21.193 8.78v-2c7.472 0 14.496-2.909 19.778-8.192l.271-.271c2.927-2.927 6.815-4.537 10.951-4.537s8.024 1.61 10.95 4.535l.272.273c5.282 5.283 12.306 8.192 19.778 8.192z"/><path d="m32 46c-4.136 0-8.024-1.61-10.95-4.535l-.272-.273c-5.282-5.283-12.306-8.192-19.778-8.192v-2c8.006 0 15.532 3.117 21.192 8.778l.272.273c2.548 2.547 5.934 3.949 9.536 3.949s6.988-1.402 9.536-3.949l.271-.271c5.661-5.663 13.187-8.78 21.193-8.78v2c-7.472 0-14.496 2.909-19.778 8.192l-.271.271c-2.926 2.927-6.815 4.537-10.951 4.537z"/><path d="m32 42c-5.514 0-10-4.486-10-10s4.486-10 10-10 10 4.486 10 10-4.486 10-10 10zm0-18c-4.411 0-8 3.589-8 8s3.589 8 8 8 8-3.589 8-8-3.589-8-8-8z"/><path d="m34.667 41.43c-3.988-1.409-6.667-5.199-6.667-9.43s2.679-8.021 6.667-9.43l.666 1.885c-3.19 1.128-5.333 4.159-5.333 7.545s2.143 6.417 5.333 7.545z"/><path d="m31 14h2v2h-2z"/><path d="m31 1h2v11h-2z"/><path d="m31 48h2v2h-2z"/><path d="m31 52h2v11h-2z"/><path d="m18 17.586h2v2.828h-2z" transform="matrix(.707 -.707 .707 .707 -7.87 19)"/><path d="m12 7.343h2v11.314h-2z" transform="matrix(.707 -.707 .707 .707 -5.385 13)"/><path d="m44 43.586h2v2.828h-2z" transform="matrix(.707 -.707 .707 .707 -18.64 45)"/><path d="m50 45.343h2v11.314h-2z" transform="matrix(.707 -.707 .707 .707 -21.125 51)"/><path d="m43.586 18h2.828v2h-2.828z" transform="matrix(.707 -.707 .707 .707 -.255 37.385)"/><path d="m45.343 12h11.314v2h-11.314z" transform="matrix(.707 -.707 .707 .707 5.745 39.87)"/><path d="m17.586 44h2.828v2h-2.828z" transform="matrix(.707 -.707 .707 .707 -26.255 26.615)"/><path d="m7.343 50h11.314v2h-11.314z" transform="matrix(.707 -.707 .707 .707 -32.255 24.13)"/></svg>