<svg id="Layer_3" enable-background="new 0 0 64 64" height="512" viewBox="0 0 64 64" width="512" xmlns="http://www.w3.org/2000/svg"><path d="m10 2c-1.105 0-2 .895-2 2v16h4v-16c0-1.105-.895-2-2-2z" fill="#b8b9b3"/><path d="m45 12h-20c-1.105 0-2 .895-2 2 0 1.105.895 2 2 2h20c1.105 0 2-.895 2-2 0-1.105-.895-2-2-2z" fill="#e39854"/><path d="m59 55h3v-14l-9.877-18.856c-.69-1.318-2.055-2.144-3.543-2.144h-42.58c-2.209 0-4 1.791-4 4v31h3" fill="#a8b0bc"/><path d="m17 48c16.016 0 29-11.417 29-25.5 0-.844-.049-1.677-.14-2.5h-39.86c-2.209 0-4 1.791-4 4v20.327c4.377 2.331 9.51 3.673 15 3.673z" fill="#c1c8d1"/><path d="m23 24h12v21h-12z" fill="#b8b9b3"/><path d="m2 32h21v4h-21z" fill="#e39854"/><path d="m52 44h10v-3l-.524-1h-9.476z" fill="#e39854"/><path d="m53.095 24h-14.095v12h20.381z" fill="#ebf7fe"/><g fill="#4d5d7a"><circle cx="12" cy="55" r="7"/><circle cx="32" cy="55" r="7"/><circle cx="52" cy="55" r="7"/></g><circle cx="12" cy="55" fill="#8892a0" r="3"/><circle cx="32" cy="55" fill="#8892a0" r="3"/><circle cx="52" cy="55" fill="#8892a0" r="3"/><path d="m12 63c-4.411 0-8-3.589-8-8s3.589-8 8-8 8 3.589 8 8-3.589 8-8 8zm0-14c-3.309 0-6 2.691-6 6s2.691 6 6 6 6-2.691 6-6-2.691-6-6-6z"/><path d="m12 59c-2.206 0-4-1.794-4-4s1.794-4 4-4 4 1.794 4 4-1.794 4-4 4zm0-6c-1.103 0-2 .897-2 2s.897 2 2 2 2-.897 2-2-.897-2-2-2z"/><path d="m32 63c-4.411 0-8-3.589-8-8s3.589-8 8-8 8 3.589 8 8-3.589 8-8 8zm0-14c-3.309 0-6 2.691-6 6s2.691 6 6 6 6-2.691 6-6-2.691-6-6-6z"/><path d="m32 59c-2.206 0-4-1.794-4-4s1.794-4 4-4 4 1.794 4 4-1.794 4-4 4zm0-6c-1.103 0-2 .897-2 2s.897 2 2 2 2-.897 2-2-.897-2-2-2z"/><path d="m52 63c-4.411 0-8-3.589-8-8s3.589-8 8-8 8 3.589 8 8-3.589 8-8 8zm0-14c-3.309 0-6 2.691-6 6s2.691 6 6 6 6-2.691 6-6-2.691-6-6-6z"/><path d="m52 59c-2.206 0-4-1.794-4-4s1.794-4 4-4 4 1.794 4 4-1.794 4-4 4zm0-6c-1.103 0-2 .897-2 2s.897 2 2 2 2-.897 2-2-.897-2-2-2z"/><path d="m62 56h-3v-2h2v-12.754l-9.763-18.638c-.519-.992-1.538-1.608-2.657-1.608h-42.58c-1.654 0-3 1.346-3 3v30h2v2h-3c-.553 0-1-.448-1-1v-31c0-2.757 2.243-5 5-5h42.58c1.866 0 3.563 1.027 4.429 2.68l9.877 18.856c.075.143.114.302.114.464v14c0 .552-.447 1-1 1z"/><path d="m19 54h6v2h-6z"/><path d="m39 54h6v2h-6z"/><path d="m59 37h-20c-.553 0-1-.448-1-1v-12c0-.552.447-1 1-1h14v2h-13v10h19z"/><path d="m35 46h-12c-.553 0-1-.448-1-1v-21c0-.552.447-1 1-1h12c.553 0 1 .448 1 1v21c0 .552-.447 1-1 1zm-11-2h10v-19h-10z"/><path d="m30 34h2v4h-2z"/><path d="m2 25h21v2h-21z"/><path d="m2 31h21v2h-21z"/><path d="m2 35h21v2h-21z"/><path d="m62 45h-10c-.553 0-1-.448-1-1v-4c0-.552.447-1 1-1h10v2h-9v2h9z"/><path d="m45 17h-20c-1.654 0-3-1.346-3-3s1.346-3 3-3h20c1.654 0 3 1.346 3 3s-1.346 3-3 3zm-20-4c-.552 0-1 .449-1 1s.448 1 1 1h20c.552 0 1-.449 1-1s-.448-1-1-1z"/><path d="m26 16h2v4h-2z"/><path d="m42 16h2v4h-2z"/><path d="m12 21h-4c-.553 0-1-.448-1-1v-16c0-1.654 1.346-3 3-3s3 1.346 3 3v16c0 .552-.447 1-1 1zm-3-2h2v-15c0-.551-.448-1-1-1s-1 .449-1 1z"/></svg>