<svg id="Layer_3" enable-background="new 0 0 64 64" height="512" viewBox="0 0 64 64" width="512" xmlns="http://www.w3.org/2000/svg"><path d="m7 2h50v60h-50z" fill="#4d5d7a"/><path d="m7 50.376c3.833 1.685 8.058 2.624 12.5 2.624 17.397 0 31.5-14.327 31.5-32 0-7.115-2.289-13.686-6.156-19h-37.844z" fill="#8892a0"/><path d="m7 2h50v8h-50z" fill="#c1c8d1"/><path d="m24 6h16v8h-16z" fill="#976947"/><g fill="#f5b953"><circle cx="39" cy="27" r="2"/><circle cx="49" cy="34" r="2"/><circle cx="39" cy="40" r="2"/><circle cx="16" cy="40" r="2"/><circle cx="13" cy="29" r="2"/><circle cx="20" cy="51" r="2"/><circle cx="33" cy="51" r="2"/></g><path d="m57 63h-50c-.553 0-1-.447-1-1v-60c0-.553.447-1 1-1h50c.553 0 1 .447 1 1v60c0 .553-.447 1-1 1zm-49-2h48v-58h-48z"/><path d="m39 30c-1.654 0-3-1.346-3-3s1.346-3 3-3 3 1.346 3 3-1.346 3-3 3zm0-4c-.552 0-1 .448-1 1s.448 1 1 1 1-.448 1-1-.448-1-1-1z"/><path d="m49 37c-1.654 0-3-1.346-3-3s1.346-3 3-3 3 1.346 3 3-1.346 3-3 3zm0-4c-.552 0-1 .448-1 1s.448 1 1 1 1-.448 1-1-.448-1-1-1z"/><path d="m39 43c-1.654 0-3-1.346-3-3s1.346-3 3-3 3 1.346 3 3-1.346 3-3 3zm0-4c-.552 0-1 .448-1 1s.448 1 1 1 1-.448 1-1-.448-1-1-1z"/><path d="m16 43c-1.654 0-3-1.346-3-3s1.346-3 3-3 3 1.346 3 3-1.346 3-3 3zm0-4c-.552 0-1 .448-1 1s.448 1 1 1 1-.448 1-1-.448-1-1-1z"/><path d="m13 32c-1.654 0-3-1.346-3-3s1.346-3 3-3 3 1.346 3 3-1.346 3-3 3zm0-4c-.552 0-1 .448-1 1s.448 1 1 1 1-.448 1-1-.448-1-1-1z"/><path d="m20 54c-1.654 0-3-1.346-3-3s1.346-3 3-3 3 1.346 3 3-1.346 3-3 3zm0-4c-.552 0-1 .448-1 1s.448 1 1 1 1-.448 1-1-.448-1-1-1z"/><path d="m33 54c-1.654 0-3-1.346-3-3s1.346-3 3-3 3 1.346 3 3-1.346 3-3 3zm0-4c-.552 0-1 .448-1 1s.448 1 1 1 1-.448 1-1-.448-1-1-1z"/><path d="m43 25.783h2v9.434h-2z" transform="matrix(.53 -.848 .848 .53 -5.184 51.647)"/><path d="m38 29h2v9h-2z"/><path d="m39 34h8v2h-8z"/><path d="m18 39h19v2h-19z"/><path d="m13.5 30.692h1.999v7.616h-1.999z" transform="matrix(.919 -.394 .394 .919 -12.418 8.501)"/><path d="m22 50h9v2h-9z"/><path d="m31.528 45h8.944v2h-8.944z" transform="matrix(.447 -.894 .894 .447 -21.243 57.628)"/><path d="m16.5 41.728h2.001v8.544h-2.001z" transform="matrix(.936 -.351 .351 .936 -15.037 9.074)"/><path d="m16.307 54.5h5.385v2h-5.385z" transform="matrix(.371 -.929 .929 .371 -39.588 52.55)"/><path d="m33.5 52.646h2v6.708h-2z" transform="matrix(.894 -.447 .447 .894 -21.402 21.341)"/><path d="m43 53h11v2h-11z"/><path d="m43 57h11v2h-11z"/><path d="m40 15h-16c-.553 0-1-.447-1-1v-8c0-.553.447-1 1-1h16c.553 0 1 .447 1 1v8c0 .553-.447 1-1 1zm-15-2h14v-6h-14z"/><path d="m40 9h17v2h-17z"/><path d="m7 9h17v2h-17z"/></svg>