<svg id="Layer_3" enable-background="new 0 0 64 64" height="512" viewBox="0 0 64 64" width="512" xmlns="http://www.w3.org/2000/svg"><circle cx="32" cy="32" fill="#a8b0bc" r="30"/><path d="m29.673 2.099c-14.711 1.13-26.444 12.863-27.574 27.574 1.103 13.065 12.05 23.327 25.401 23.327 14.083 0 25.5-11.417 25.5-25.5 0-13.351-10.262-24.298-23.327-25.401z" fill="#c1c8d1"/><circle cx="11" cy="36" fill="#f5b953" r="4"/><circle cx="23" cy="52" fill="#f5b953" r="4"/><circle cx="48" cy="20" fill="#3d98f7" r="6"/><circle cx="42" cy="33" fill="#f5b953" r="3"/><circle cx="24" cy="25" fill="#f5b953" r="3"/><path d="m14 15c0-1.657-1.343-3-3-3h-6c-1.657 0-3-1.343-3-3 0-1.657 1.343-3 3-3h12c1.657 0 3 1.343 3 3 0 1.657 1.343 3 3 3h6c1.657 0 3 1.343 3 3 0 1.657-1.343 3-3 3h-12c-1.657 0-3-1.343-3-3z" fill="#4d5d7a"/><path d="m50 50c0 1.657 1.343 3 3 3h6c1.657 0 3 1.343 3 3 0 1.657-1.343 3-3 3h-12c-1.657 0-3-1.343-3-3 0-1.657-1.343-3-3-3h-6c-1.657 0-3-1.343-3-3 0-1.657 1.343-3 3-3h12c1.657 0 3 1.343 3 3z" fill="#4d5d7a"/><path d="m54.138 53.7-1.428-1.4c5.346-5.453 8.29-12.662 8.29-20.3 0-15.99-13.01-29-29-29-5.096 0-10.107 1.34-14.494 3.876l-1-1.732c4.689-2.711 10.048-4.144 15.494-4.144 17.094 0 31 13.906 31 31 0 8.164-3.147 15.87-8.862 21.7z"/><path d="m32 63c-17.094 0-31-13.906-31-31 0-7.64 2.804-14.979 7.894-20.667l1.49 1.334c-4.762 5.32-7.384 12.187-7.384 19.333 0 15.99 13.01 29 29 29 4.664 0 9.119-1.073 13.239-3.191l.914 1.779c-4.406 2.264-9.168 3.412-14.153 3.412z"/><path d="m29 19h-12c-2.206 0-4-1.794-4-4 0-1.103-.897-2-2-2h-6c-2.206 0-4-1.794-4-4s1.794-4 4-4h12c2.206 0 4 1.794 4 4 0 1.103.897 2 2 2h6c2.206 0 4 1.794 4 4s-1.794 4-4 4zm-24-12c-1.103 0-2 .897-2 2s.897 2 2 2h6c2.206 0 4 1.794 4 4 0 1.103.897 2 2 2h12c1.103 0 2-.897 2-2s-.897-2-2-2h-6c-2.206 0-4-1.794-4-4 0-1.103-.897-2-2-2z"/><path d="m59 60h-12c-2.206 0-4-1.794-4-4 0-1.103-.897-2-2-2h-6c-2.206 0-4-1.794-4-4s1.794-4 4-4h12c2.206 0 4 1.794 4 4 0 1.103.897 2 2 2h6c2.206 0 4 1.794 4 4s-1.794 4-4 4zm-24-12c-1.103 0-2 .897-2 2s.897 2 2 2h6c2.206 0 4 1.794 4 4 0 1.103.897 2 2 2h12c1.103 0 2-.897 2-2s-.897-2-2-2h-6c-2.206 0-4-1.794-4-4 0-1.103-.897-2-2-2z"/><path d="m48 27c-3.859 0-7-3.141-7-7s3.141-7 7-7 7 3.141 7 7-3.141 7-7 7zm0-12c-2.757 0-5 2.243-5 5s2.243 5 5 5 5-2.243 5-5-2.243-5-5-5z"/><path d="m42 37c-2.206 0-4-1.794-4-4s1.794-4 4-4 4 1.794 4 4-1.794 4-4 4zm0-6c-1.103 0-2 .897-2 2s.897 2 2 2 2-.897 2-2-.897-2-2-2z"/><path d="m11 41c-2.757 0-5-2.243-5-5s2.243-5 5-5 5 2.243 5 5h-2c0-1.654-1.346-3-3-3s-3 1.346-3 3 1.346 3 3 3z"/><path d="m23 57c-2.757 0-5-2.243-5-5s2.243-5 5-5v2c-1.654 0-3 1.346-3 3s1.346 3 3 3 3-1.346 3-3h2c0 2.757-2.243 5-5 5z"/><path d="m24 29c-2.206 0-4-1.794-4-4s1.794-4 4-4 4 1.794 4 4-1.794 4-4 4zm0-6c-1.103 0-2 .897-2 2s.897 2 2 2 2-.897 2-2-.897-2-2-2z"/></svg>