<svg id="Layer_3" enable-background="new 0 0 64 64" height="512" viewBox="0 0 64 64" width="512" xmlns="http://www.w3.org/2000/svg"><circle cx="55" cy="7" fill="#4472b2" r="5"/><circle cx="56" cy="6" fill="#f5b953" r="2"/><path d="m12 19h4v26h-4z" fill="#8892a0"/><path d="m8 2h12v18h-12z" fill="#a8b0bc"/><path d="m42 36v-7c0-5.523-4.477-10-10-10-5.523 0-10 4.477-10 10v7" fill="#c1c8d1"/><path d="m22.05 28h19.9c-.502-5.053-4.764-9-9.95-9s-9.448 3.947-9.95 9z" fill="#c7e2fc"/><path d="m60 62c0-15.464-12.536-28-28-28s-28 12.536-28 28" fill="#976947"/><path d="m32 34c-10.782 0-20.135 6.098-24.813 15.03 4.534 4.301 10.839 6.97 17.813 6.97 11.199 0 20.678-6.877 23.859-16.354-4.69-3.543-10.528-5.646-16.859-5.646z" fill="#c18e59"/><g fill="#f5b953"><circle cx="40" cy="56" r="2"/><circle cx="12" cy="55" r="3"/><circle cx="25" cy="43" r="3"/><circle cx="47" cy="49" r="4"/></g><path d="m1 61h62v2h-62z"/><path d="m61 62h-2c0-14.888-12.112-27-27-27s-27 12.112-27 27h-2c0-15.99 13.009-29 29-29s29 13.01 29 29z"/><path d="m47 54c-2.757 0-5-2.243-5-5s2.243-5 5-5 5 2.243 5 5h-2c0-1.654-1.346-3-3-3s-3 1.346-3 3 1.346 3 3 3z"/><path d="m40 59c-1.654 0-3-1.346-3-3s1.346-3 3-3 3 1.346 3 3-1.346 3-3 3zm0-4c-.551 0-1 .448-1 1s.449 1 1 1 1-.448 1-1-.449-1-1-1z"/><path d="m12 59c-2.206 0-4-1.794-4-4s1.794-4 4-4 4 1.794 4 4-1.794 4-4 4zm0-6c-1.103 0-2 .897-2 2s.897 2 2 2 2-.897 2-2-.897-2-2-2z"/><path d="m43 36h-2v-7c0-4.963-4.038-9-9-9s-9 4.037-9 9v7h-2v-7c0-6.065 4.935-11 11-11s11 4.935 11 11z"/><path d="m22 27h20v2h-20z"/><path d="m36 29c-.061 0-.122-.006-.183-.017-.324-.061-.597-.276-.731-.577l-3.086-6.944-3.086 6.944c-.134.301-.407.517-.731.577-.325.058-.657-.043-.89-.276l-4-4 1.414-1.414 2.971 2.971 3.409-7.67c.16-.362.518-.594.913-.594s.753.232.914.594l3.409 7.67 2.971-2.971 1.414 1.414-4 4c-.19.189-.445.293-.708.293z"/><path d="m55 13c-3.309 0-6-2.691-6-6s2.691-6 6-6 6 2.691 6 6-2.691 6-6 6zm0-10c-2.206 0-4 1.794-4 4s1.794 4 4 4 4-1.794 4-4-1.794-4-4-4z"/><path d="m47 6h16v2h-16z"/><path d="m20 21h-12c-.552 0-1-.447-1-1v-18c0-.553.448-1 1-1h12c.552 0 1 .447 1 1v18c0 .553-.448 1-1 1zm-11-2h10v-16h-10z"/><path d="m13 2h2v18h-2z"/><path d="m8 7h12v2h-12z"/><path d="m8 13h12v2h-12z"/><path d="m11 20h2v22h-2z"/><path d="m15 20h2v19h-2z"/><path d="m25 47c-2.206 0-4-1.794-4-4s1.794-4 4-4 4 1.794 4 4h-2c0-1.103-.897-2-2-2s-2 .897-2 2 .897 2 2 2z"/><path d="m53 20h2v2h-2z"/><path d="m57 20h2v2h-2z"/><path d="m55 18h2v2h-2z"/><path d="m55 22h2v2h-2z"/><path d="m30 7h2v2h-2z"/><path d="m34 7h2v2h-2z"/><path d="m32 5h2v2h-2z"/><path d="m32 9h2v2h-2z"/><path d="m57 36h6v2h-6z"/><path d="m59 34h2v6h-2z"/></svg>