<svg id="Layer_3" enable-background="new 0 0 64 64" height="512" viewBox="0 0 64 64" width="512" xmlns="http://www.w3.org/2000/svg"><path d="m56.615 30.615-28.615-28.615 1.952 17.57-27.952-17.57 17.57 27.952-17.57-1.952 28.615 28.615c3.448 3.448 8.124 5.385 13 5.385 10.154 0 18.385-8.231 18.385-18.385 0-4.876-1.937-9.552-5.385-13z" fill="#e39854"/><path d="m29.25 13.25.702 6.32-27.952-17.57 17.57 27.952-6.32-.702 23.436 23.436c2.122 2.122 4.999 3.314 8 3.314 6.249 0 11.314-5.065 11.314-11.314 0-3.001-1.192-5.878-3.314-8z" fill="#c16b3f"/><path d="m31.683 50.764c.719-1.064 1.936-1.764 3.317-1.764 2.209 0 4 1.791 4 4 0 1.361-.68 2.563-1.718 3.286 1.994 1.093 4.283 1.714 6.718 1.714 7.732 0 14-6.268 14-14s-6.268-14-14-14-14 6.268-14 14c0 2.435.621 4.724 1.714 6.718z" fill="#4d5d7a"/><path d="m30 44c0 2.435.621 4.724 1.714 6.718l-.031.045c.719-1.063 1.936-1.763 3.317-1.763 2.209 0 4 1.791 4 4 0 .338-.042.667-.121.981 7.831-.203 14.121-6.601 14.121-14.481 0-2.866-.843-5.531-2.278-7.781-1.996-1.094-4.285-1.719-6.722-1.719-7.732 0-14 6.268-14 14z" fill="#8892a0"/><g fill="#f5b953"><circle cx="47" cy="38" r="3"/><circle cx="38" cy="42" r="2"/><circle cx="48" cy="50" r="2"/></g><path d="m43.615 63c-5.178 0-10.046-2.017-13.707-5.678l-28.615-28.615c-.301-.3-.378-.758-.194-1.141.185-.382.583-.601 1.012-.561l18 2-.221 1.988-15.167-1.684 26.6 26.6c3.282 3.282 7.649 5.091 12.292 5.091 9.586 0 17.385-7.799 17.385-17.385 0-4.644-1.809-9.01-5.092-12.293l-26.6-26.6 1.686 15.167-1.988.221-2-18c-.047-.422.178-.828.561-1.012.383-.183.841-.106 1.141.194l28.615 28.615c3.66 3.662 5.677 8.531 5.677 13.708 0 10.689-8.696 19.385-19.385 19.385z"/><path d="m44 59c-2.516 0-5.005-.635-7.199-1.837-.304-.166-.5-.478-.519-.823-.018-.347.144-.677.428-.875.808-.562 1.29-1.483 1.29-2.465 0-1.654-1.346-3-3-3-.998 0-1.928.495-2.487 1.323-.307.456-.926.578-1.384.272-.235-.157-.383-.396-.43-.654-1.112-2.129-1.699-4.522-1.699-6.941 0-8.271 6.729-15 15-15s15 6.729 15 15-6.729 15-15 15zm-5.002-2.998c1.576.655 3.281.998 5.002.998 7.168 0 13-5.832 13-13s-5.832-13-13-13-13 5.832-13 13c0 1.721.342 3.426.998 5.001.854-.642 1.903-1.001 3.002-1.001 2.757 0 5 2.243 5 5 0 1.096-.36 2.146-1.002 3.002z"/><path d="m47 42c-2.206 0-4-1.794-4-4s1.794-4 4-4 4 1.794 4 4-1.794 4-4 4zm0-6c-1.103 0-2 .897-2 2s.897 2 2 2 2-.897 2-2-.897-2-2-2z"/><path d="m38 45c-1.654 0-3-1.346-3-3s1.346-3 3-3 3 1.346 3 3-1.346 3-3 3zm0-4c-.552 0-1 .448-1 1s.448 1 1 1 1-.448 1-1-.448-1-1-1z"/><path d="m48 53c-1.654 0-3-1.346-3-3s1.346-3 3-3 3 1.346 3 3-1.346 3-3 3zm0-4c-.552 0-1 .448-1 1s.448 1 1 1 1-.448 1-1-.448-1-1-1z"/><path d="m23.153 37.532-22-35c-.248-.396-.19-.909.14-1.239.332-.331.845-.389 1.239-.14l35 22-1.064 1.693-31.288-19.666 19.667 31.288z"/></svg>