<svg id="Layer_3" enable-background="new 0 0 64 64" height="512" viewBox="0 0 64 64" width="512" xmlns="http://www.w3.org/2000/svg"><path d="m4.512 19.997c2.017 2.445 5.071 4.003 8.488 4.003 6.075 0 11-4.925 11-11 0-3.423-1.563-6.481-4.015-8.498l-.001.001c3.679-1.61 7.743-2.503 12.016-2.503 16.569 0 30 13.431 30 30s-13.431 30-30 30-30-13.431-30-30c0-4.273.893-8.337 2.503-12.016z" fill="#4d5d7a"/><path d="m28 4c-2.543 0-4.987.419-7.275 1.181 2.019 1.994 3.275 4.758 3.275 7.819 0 6.075-4.925 11-11 11-2.792 0-5.331-1.052-7.271-2.766-.475 1.842-.729 3.775-.729 5.766 0 12.703 10.297 23 23 23s23-10.297 23-23-10.297-23-23-23z" fill="#8892a0"/><g fill="#f5b953"><circle cx="38" cy="14" r="6"/><circle cx="47" cy="24" r="3"/><circle cx="15" cy="40" r="5"/><circle cx="33" cy="33" r="2"/><circle cx="28" cy="49" r="2"/><circle cx="50" cy="44" r="2"/></g><path d="m32 63c-17.094 0-31-13.906-31-31 0-4.315.87-8.493 2.587-12.416.146-.333.459-.56.819-.595.348-.033.689.117.898.397 1.91 2.298 4.713 3.614 7.696 3.614 5.514 0 10-4.486 10-10 0-2.98-1.312-5.778-3.603-7.687-.134-.097-.245-.227-.319-.387-.23-.491-.027-1.076.458-1.318.017-.009.034-.017.052-.023 3.923-1.715 8.099-2.585 12.412-2.585 17.094 0 31 13.906 31 31s-13.906 31-31 31zm-27.157-41.197c-1.224 3.252-1.843 6.675-1.843 10.197 0 15.99 13.01 29 29 29s29-13.01 29-29-13.01-29-29-29c-3.521 0-6.945.619-10.197 1.843 2.048 2.206 3.197 5.102 3.197 8.157 0 6.617-5.383 12-12 12-3.055 0-5.95-1.149-8.157-3.197z"/><path d="m38 21c-3.859 0-7-3.141-7-7s3.141-7 7-7 7 3.141 7 7-3.141 7-7 7zm0-12c-2.757 0-5 2.243-5 5s2.243 5 5 5 5-2.243 5-5-2.243-5-5-5z"/><path d="m47 28c-2.206 0-4-1.794-4-4s1.794-4 4-4 4 1.794 4 4-1.794 4-4 4zm0-6c-1.103 0-2 .897-2 2s.897 2 2 2 2-.897 2-2-.897-2-2-2z"/><path d="m15 46c-3.309 0-6-2.691-6-6s2.691-6 6-6 6 2.691 6 6-2.691 6-6 6zm0-10c-2.206 0-4 1.794-4 4s1.794 4 4 4 4-1.794 4-4-1.794-4-4-4z"/><path d="m33 36c-1.654 0-3-1.346-3-3s1.346-3 3-3 3 1.346 3 3-1.346 3-3 3zm0-4c-.552 0-1 .448-1 1s.448 1 1 1 1-.448 1-1-.448-1-1-1z"/><path d="m28 52c-1.654 0-3-1.346-3-3s1.346-3 3-3 3 1.346 3 3-1.346 3-3 3zm0-4c-.552 0-1 .448-1 1s.448 1 1 1 1-.448 1-1-.448-1-1-1z"/><path d="m50 47c-1.654 0-3-1.346-3-3s1.346-3 3-3 3 1.346 3 3-1.346 3-3 3zm0-4c-.552 0-1 .448-1 1s.448 1 1 1 1-.448 1-1-.448-1-1-1z"/><path d="m6 9h6v2h-6z"/><path d="m8 7h2v6h-2z"/><path d="m21 27h6v2h-6z"/><path d="m23 25h2v6h-2z"/><path d="m35 42h6v2h-6z"/><path d="m37 40h2v6h-2z"/></svg>