<svg id="Layer_3" enable-background="new 0 0 64 64" height="512" viewBox="0 0 64 64" width="512" xmlns="http://www.w3.org/2000/svg"><path d="m41 17-3 3 6 6 3-3" fill="#2b74ca"/><path d="m43.379 11.429h4.243v14.142h-4.243z" fill="#3d98f7" transform="matrix(.707 -.707 .707 .707 .245 37.592)"/><path d="m37 30 6-6-3-3-6 6" fill="#3d98f7"/><path d="m42 42c0-9.941-8.059-18-18-18s-18 8.059-18 18" fill="#b8b9b3"/><path d="m24 24c-8.511 0-15.626 5.915-17.501 13.853 2.459.738 5.162 1.147 8.001 1.147 9.89 0 18.143-4.955 20.072-11.546-2.971-2.163-6.616-3.454-10.572-3.454z" fill="#c1c8d1"/><path d="m4 42h40v4h-40z" fill="#a8b0bc"/><path d="m6 46h36v16h-36z" fill="#b8b9b3"/><g fill="#c7e2fc"><path d="m10 50h4v4h-4z"/><path d="m18 50h4v4h-4z"/><path d="m26 50h4v4h-4z"/><path d="m34 50h4v4h-4z"/></g><path d="m55 12-5 3 1-5-3-3h4l3-5 3 5h4l-3 3 1 5z" fill="#a1cdfb"/><path d="m51 11c3.049 0 5.636-1.953 6.596-4.674l-2.596-4.326-3 5h-4l3 3-.198.99c.066.002.131.01.198.01z" fill="#c7e2fc"/><circle cx="9" cy="7" fill="#976947" r="5"/><circle cx="8" cy="6" fill="#f5b953" r="2"/><path d="m1 61h62v2h-62z"/><path d="m44 47h-40c-.552 0-1-.447-1-1v-4c0-.553.448-1 1-1h40c.552 0 1 .447 1 1v4c0 .553-.448 1-1 1zm-39-2h38v-2h-38z"/><path d="m5 46h2v16h-2z"/><path d="m41 46h2v16h-2z"/><path d="m14 55h-4c-.552 0-1-.447-1-1v-4c0-.553.448-1 1-1h4c.552 0 1 .447 1 1v4c0 .553-.448 1-1 1zm-3-2h2v-2h-2z"/><path d="m22 55h-4c-.552 0-1-.447-1-1v-4c0-.553.448-1 1-1h4c.552 0 1 .447 1 1v4c0 .553-.448 1-1 1zm-3-2h2v-2h-2z"/><path d="m30 55h-4c-.552 0-1-.447-1-1v-4c0-.553.448-1 1-1h4c.552 0 1 .447 1 1v4c0 .553-.448 1-1 1zm-3-2h2v-2h-2z"/><path d="m38 55h-4c-.552 0-1-.447-1-1v-4c0-.553.448-1 1-1h4c.552 0 1 .447 1 1v4c0 .553-.448 1-1 1zm-3-2h2v-2h-2z"/><path d="m43 42h-2c0-9.374-7.626-17-17-17s-17 7.626-17 17h-2c0-10.477 8.523-19 19-19s19 8.523 19 19z"/><path d="m49 26c-.256 0-.512-.098-.707-.293l-10-10c-.391-.391-.391-1.023 0-1.414l3-3c.391-.391 1.023-.391 1.414 0l10 10c.391.391.391 1.023 0 1.414l-3 3c-.195.195-.451.293-.707.293zm-8.586-11 8.586 8.586 1.586-1.586-8.586-8.586z"/><path d="m44 27c-.256 0-.512-.098-.707-.293l-6-6c-.391-.391-.391-1.023 0-1.414l3-3 1.414 1.414-2.293 2.293 4.586 4.586 2.293-2.293 1.414 1.414-3 3c-.195.195-.451.293-.707.293z"/><path d="m32.757 23h8.485v2h-8.485z" transform="matrix(.707 -.707 .707 .707 -6.134 33.192)"/><path d="m35.757 26h8.485v2h-8.485z" transform="matrix(.707 -.707 .707 .707 -7.376 36.192)"/><path d="m11 42h-2c0-6.589 4.406-12.501 10.715-14.378l.57 1.916c-5.467 1.627-9.285 6.751-9.285 12.462z"/><path d="m22.141 29.132-.281-1.98c.707-.101 1.428-.152 2.14-.152v2c-.619 0-1.244.044-1.859.132z"/><path d="m60 16c-.178 0-.356-.047-.515-.143l-4.485-2.691-4.485 2.691c-.34.204-.768.187-1.091-.04-.323-.228-.482-.625-.404-1.014l.895-4.475-2.622-2.622c-.286-.286-.372-.716-.217-1.09s.52-.616.924-.616h3.434l2.709-4.515c.361-.602 1.354-.602 1.715 0l2.708 4.515h3.434c.404 0 .769.243.924.617s.069.804-.217 1.09l-2.622 2.622.895 4.475c.078.389-.081.786-.404 1.014-.172.12-.374.182-.576.182zm-5-5c.178 0 .356.048.515.143l3.062 1.837-.557-2.783c-.066-.328.037-.667.273-.903l1.293-1.294h-1.586c-.351 0-.677-.185-.857-.485l-2.143-3.572-2.143 3.571c-.18.301-.506.486-.857.486h-1.586l1.293 1.293c.236.236.339.575.273.903l-.557 2.783 3.062-1.837c.159-.094.337-.142.515-.142z"/><path d="m9 13c-3.309 0-6-2.691-6-6s2.691-6 6-6 6 2.691 6 6-2.691 6-6 6zm0-10c-2.206 0-4 1.794-4 4s1.794 4 4 4 4-1.794 4-4-1.794-4-4-4z"/><path d="m1 6h16v2h-16z"/><path d="m7 20h2v2h-2z"/><path d="m11 20h2v2h-2z"/><path d="m9 18h2v2h-2z"/><path d="m9 22h2v2h-2z"/><path d="m21 15h6v2h-6z"/><path d="m23 13h2v6h-2z"/></svg>