<svg id="Layer_3" enable-background="new 0 0 64 64" height="512" viewBox="0 0 64 64" width="512" xmlns="http://www.w3.org/2000/svg"><path d="m22 32v26h20v-26" fill="#c1c8d1"/><path d="m22 58 5 4h10l5-4" fill="#4472b2"/><path d="m36 25 6 7h-20l6-7" fill="#4472b2"/><path d="m42 16c0 5.523-4.477 10-10 10s-10-4.477-10-10z" fill="#a8b0bc"/><path d="m39.484 16h-17.484c0 2.089.642 4.027 1.738 5.631 1.115.233 2.278.369 3.485.369 5.351 0 9.979-2.441 12.261-6z" fill="#c1c8d1"/><path d="m42 38h20v14h-20z" fill="#8892a0"/><path d="m2 38h20v14h-20z" fill="#8892a0"/><path d="m34 36h4v18h-4z" fill="#fff"/><path d="m32 27c-6.065 0-11-4.935-11-11 0-.552.447-1 1-1h20c.553 0 1 .448 1 1 0 6.065-4.935 11-11 11zm-8.944-10c.499 4.494 4.319 8 8.944 8s8.445-3.506 8.944-8z"/><path d="m32 7c-1.654 0-3-1.346-3-3s1.346-3 3-3 3 1.346 3 3-1.346 3-3 3zm0-4c-.552 0-1 .449-1 1s.448 1 1 1 1-.449 1-1-.448-1-1-1z"/><path d="m24.901 10h10.198v2h-10.198z" transform="matrix(.196 -.981 .981 .196 13.325 38.257)"/><path d="m33 5.901h2v10.198h-2z" transform="matrix(.981 -.196 .196 .981 -1.497 6.882)"/><path d="m42 33h-20c-.391 0-.745-.228-.908-.582-.163-.355-.105-.772.149-1.069l6-7 1.518 1.302-4.585 5.349h15.652l-4.585-5.349 1.518-1.302 6 7c.255.296.312.714.149 1.069-.163.354-.517.582-.908.582z"/><path d="m42 59h-20c-.553 0-1-.448-1-1v-26h2v25h18v-25h2v26c0 .552-.447 1-1 1z"/><path d="m37 63h-10c-.228 0-.447-.077-.625-.219l-5-4 1.25-1.562 4.726 3.781h9.299l4.726-3.781 1.25 1.562-5 4c-.179.142-.398.219-.626.219z"/><path d="m38 55h-4c-.553 0-1-.448-1-1v-18c0-.552.447-1 1-1h4c.553 0 1 .448 1 1v18c0 .552-.447 1-1 1zm-3-2h2v-16h-2z"/><path d="m62 53h-20c-.553 0-1-.448-1-1v-14c0-.552.447-1 1-1h20c.553 0 1 .448 1 1v14c0 .552-.447 1-1 1zm-19-2h18v-12h-18z"/><path d="m42 44h20v2h-20z"/><path d="m45 38h2v14h-2z"/><path d="m49 38h2v14h-2z"/><path d="m53 38h2v14h-2z"/><path d="m57 38h2v14h-2z"/><path d="m22 53h-20c-.553 0-1-.448-1-1v-14c0-.552.447-1 1-1h20c.553 0 1 .448 1 1v14c0 .552-.447 1-1 1zm-19-2h18v-12h-18z"/><path d="m2 44h20v2h-20z"/><path d="m5 38h2v14h-2z"/><path d="m9 38h2v14h-2z"/><path d="m13 38h2v14h-2z"/><path d="m17 38h2v14h-2z"/><path d="m63 14h-2c0-6.065-4.935-11-11-11v-2c7.168 0 13 5.832 13 13z"/><path d="m59 14h-2c0-3.86-3.141-7-7-7v-2c4.963 0 9 4.038 9 9z"/><path d="m55 14h-2c0-1.654-1.346-3-3-3v-2c2.757 0 5 2.243 5 5z"/><path d="m48 19c-1.654 0-3-1.346-3-3s1.346-3 3-3 3 1.346 3 3-1.346 3-3 3zm0-4c-.552 0-1 .449-1 1s.448 1 1 1 1-.449 1-1-.448-1-1-1z"/><path d="m3 14h-2c0-7.168 5.832-13 13-13v2c-6.065 0-11 4.935-11 11z"/><path d="m7 14h-2c0-4.962 4.037-9 9-9v2c-3.859 0-7 3.14-7 7z"/><path d="m11 14h-2c0-2.757 2.243-5 5-5v2c-1.654 0-3 1.346-3 3z"/><path d="m16 19c-1.654 0-3-1.346-3-3s1.346-3 3-3 3 1.346 3 3-1.346 3-3 3zm0-4c-.552 0-1 .449-1 1s.448 1 1 1 1-.449 1-1-.448-1-1-1z"/></svg>