<svg id="Layer_3" enable-background="new 0 0 64 64" height="512" viewBox="0 0 64 64" width="512" xmlns="http://www.w3.org/2000/svg"><g fill="#a1cdfb"><circle cx="60" cy="4" r="2"/><circle cx="49" cy="4" r="2"/><circle cx="49" cy="24" r="2"/></g><path d="m18 54-4-15h-4l-4 15" fill="#8892a0"/><path d="m56 46h4v16h-4z" fill="#a8b0bc"/><path d="m48 51h4v11h-4z" fill="#a8b0bc"/><path d="m32 58h8v4h-8z" fill="#c16b3f"/><path d="m4 54h28v8h-28z" fill="#e39854"/><path d="m7.379 30.174c-2.122-2.837-3.379-6.359-3.379-10.174 0-4.694 1.903-8.944 4.979-12.021l24.042 24.042c-3.077 3.076-7.327 4.979-12.021 4.979-1.236 0-2.441-.132-3.601-.382" fill="#2d4d83"/><path d="m27.402 26.402-18.423-18.423c-3.076 3.077-4.979 7.327-4.979 12.021 0 .766.064 1.515.162 2.254 4.332 2.934 10.276 4.746 16.838 4.746 2.218 0 4.363-.211 6.402-.598z" fill="#4472b2"/><circle cx="12" cy="34" fill="#c1c8d1" r="6"/><circle cx="12" cy="34" fill="#fff" r="2"/><path d="m1 61h62v2h-62z"/><path d="m32 63h-28c-.552 0-1-.448-1-1v-8c0-.552.448-1 1-1h28c.552 0 1 .448 1 1v8c0 .552-.448 1-1 1zm-27-2h26v-6h-26z"/><path d="m41 62h-2v-3h-7v-2h8c.552 0 1 .448 1 1z"/><path d="m12 37c-1.654 0-3-1.346-3-3s1.346-3 3-3 3 1.346 3 3-1.346 3-3 3zm0-4c-.551 0-1 .449-1 1s.449 1 1 1 1-.449 1-1-.449-1-1-1z"/><path d="m12 41c-3.86 0-7-3.14-7-7s3.14-7 7-7 7 3.14 7 7-3.14 7-7 7zm0-12c-2.757 0-5 2.243-5 5s2.243 5 5 5 5-2.243 5-5-2.243-5-5-5z"/><path d="m.238 45.5h15.524v2h-15.524z" transform="matrix(.258 -.966 .966 .258 -38.991 42.243)"/><path d="m15 38.738h2v15.524h-2z" transform="matrix(.966 -.258 .258 .966 -11.441 5.693)"/><path d="m21 38c-1.285 0-2.567-.136-3.812-.405l.422-1.955c1.106.239 2.247.36 3.39.36 3.938 0 7.66-1.414 10.585-4l-22.585-22.585c-2.586 2.925-4 6.647-4 10.585 0 3.483 1.1 6.794 3.18 9.575l-1.602 1.198c-2.341-3.129-3.578-6.854-3.578-10.773 0-4.808 1.872-9.328 5.272-12.728.375-.375 1.039-.375 1.414 0l24.042 24.042c.188.188.293.442.293.707s-.105.52-.293.707c-3.4 3.4-7.92 5.272-12.728 5.272z"/><path d="m19.964 16.5h7.071v2h-7.071z" transform="matrix(.707 -.707 .707 .707 -5.491 21.743)"/><path d="m28 17c-2.206 0-4-1.794-4-4s1.794-4 4-4 4 1.794 4 4-1.794 4-4 4zm0-6c-1.103 0-2 .897-2 2s.897 2 2 2 2-.897 2-2-.897-2-2-2z"/><path d="m36 13h-2c0-3.309-2.691-6-6-6v-2c4.411 0 8 3.589 8 8z"/><path d="m40 13h-2c0-5.514-4.486-10-10-10v-2c6.617 0 12 5.383 12 12z"/><path d="m60 63h-4c-.552 0-1-.448-1-1v-16c0-.552.448-1 1-1h4c.552 0 1 .448 1 1v16c0 .552-.448 1-1 1zm-3-2h2v-14h-2z"/><path d="m57 32h2v14h-2z"/><path d="m52 63h-4c-.552 0-1-.448-1-1v-11c0-.552.448-1 1-1h4c.552 0 1 .448 1 1v11c0 .552-.448 1-1 1zm-3-2h2v-9h-2z"/><path d="m49 37h2v14h-2z"/><path d="m60 7c-1.654 0-3-1.346-3-3s1.346-3 3-3 3 1.346 3 3-1.346 3-3 3zm0-4c-.551 0-1 .449-1 1s.449 1 1 1 1-.449 1-1-.449-1-1-1z"/><path d="m49 7c-1.654 0-3-1.346-3-3s1.346-3 3-3 3 1.346 3 3-1.346 3-3 3zm0-4c-.551 0-1 .449-1 1s.449 1 1 1 1-.449 1-1-.449-1-1-1z"/><path d="m49 27c-1.654 0-3-1.346-3-3s1.346-3 3-3 3 1.346 3 3-1.346 3-3 3zm0-4c-.551 0-1 .449-1 1s.449 1 1 1 1-.449 1-1-.449-1-1-1z"/></svg>