<svg id="Layer_3" enable-background="new 0 0 64 64" height="512" viewBox="0 0 64 64" width="512" xmlns="http://www.w3.org/2000/svg"><path d="m58 38v-18h-47l-7 12v6" fill="#c16b3f"/><path d="m4 32h54v6h-54z" fill="#fadfb2"/><path d="m4 42 8 12h4v-12" fill="#fadfb2"/><path d="m46 42 8 12h4v-12" fill="#fadfb2"/><path d="m49 6h4v14h-4z" fill="#c1c8d1"/><path d="m42 24h16v4h-16z" fill="#c1c8d1"/><g fill="#8892a0"><path d="m2 38h60v4h-60z" transform="matrix(-1 0 0 -1 64 80)"/><path d="m44 2h14v4h-14z" transform="matrix(-1 0 0 -1 102 8)"/><path d="m40 20v-8h-21l-4 8"/><path d="m46 54h14v4h-14z" transform="matrix(-1 0 0 -1 106 112)"/><path d="m4 54h14v4h-14z" transform="matrix(-1 0 0 -1 22 112)"/></g><path d="m1 61h62v2h-62z"/><path d="m60 59h-14c-.553 0-1-.448-1-1v-4c0-.552.447-1 1-1h14c.553 0 1 .448 1 1v4c0 .552-.447 1-1 1zm-13-2h12v-2h-12z"/><path d="m57 42h2v12h-2z"/><path d="m49 40.789h2v14.422h-2z" transform="matrix(.832 -.555 .555 .832 -18.228 35.797)"/><path d="m18 59h-14c-.553 0-1-.448-1-1v-4c0-.552.447-1 1-1h14c.553 0 1 .448 1 1v4c0 .552-.447 1-1 1zm-13-2h12v-2h-12z"/><path d="m15 42h2v12h-2z"/><path d="m7 40.789h2v14.422h-2z" transform="matrix(.832 -.555 .555 .832 -25.282 12.499)"/><path d="m62 43h-60c-.553 0-1-.448-1-1v-4c0-.552.447-1 1-1h60c.553 0 1 .448 1 1v4c0 .552-.447 1-1 1zm-59-2h58v-2h-58z"/><path d="m4 31h54v2h-54z"/><path d="m59 38h-2v-17h-45.426l-6.574 11.271v5.729h-2v-6c0-.177.047-.351.136-.504l7-12c.179-.307.509-.496.864-.496h47c.553 0 1 .448 1 1z"/><path d="m58 7h-14c-.553 0-1-.448-1-1v-4c0-.552.447-1 1-1h14c.553 0 1 .448 1 1v4c0 .552-.447 1-1 1zm-13-2h12v-2h-12z"/><path d="m53 21h-4c-.553 0-1-.448-1-1v-14c0-.552.447-1 1-1h4c.553 0 1 .448 1 1v14c0 .552-.447 1-1 1zm-3-2h2v-12h-2z"/><path d="m15.895 20.447-1.789-.895 4-8c.169-.338.515-.552.894-.552h21c.553 0 1 .448 1 1v8h-2v-7h-19.382z"/><path d="m58 29h-16c-.553 0-1-.448-1-1v-4c0-.552.447-1 1-1h16v2h-15v2h15z"/><path d="m51 51h-27c-2.757 0-5-2.243-5-5v-4h2v4c0 1.654 1.346 3 3 3h27z"/><path d="m21 7c-1.654 0-3-1.346-3-3s1.346-3 3-3 3 1.346 3 3-1.346 3-3 3zm0-4c-.552 0-1 .449-1 1s.448 1 1 1 1-.449 1-1-.448-1-1-1z"/><path d="m20 6h2v6h-2z"/></svg>