<svg id="Layer_3" enable-background="new 0 0 64 64" height="512" viewBox="0 0 64 64" width="512" xmlns="http://www.w3.org/2000/svg"><circle cx="54" cy="54" fill="#f2c351" r="8"/><circle cx="53" cy="11" fill="#f2c351" r="5"/><circle cx="11" cy="11" fill="#f2c351" r="3"/><circle cx="10" cy="52" fill="#f2c351" r="5"/><g fill="#c16b3f"><path d="m37 20-5-8-5 8"/><path d="m27 44 5 8 5-8"/><path d="m20 27-8 5 8 5"/><path d="m44 37 8-5-8-5"/><path d="m20 27-2-9 9 2"/><path d="m44 27 2-9-9 2"/><path d="m44 37 2 9-9-2"/><path d="m20 37-2 9 9-2"/></g><circle cx="32" cy="32" fill="#e39854" r="13"/><path d="m5.906 48.744c-3.209-4.992-4.906-10.782-4.906-16.744 0-7.139 2.486-14.108 7-19.624l1.548 1.268c-4.222 5.159-6.548 11.677-6.548 18.356 0 5.577 1.587 10.993 4.589 15.662z"/><path d="m32 63c-7.019 0-13.64-2.288-19.146-6.617l1.236-1.572c5.151 4.048 11.344 6.189 17.91 6.189 5.117 0 10.146-1.351 14.545-3.905l1.005 1.729c-4.704 2.732-10.081 4.176-15.55 4.176z"/><path d="m58.824 47.55-1.729-1.004c2.554-4.399 3.905-9.429 3.905-14.546 0-6.068-1.854-11.879-5.362-16.804l1.629-1.16c3.751 5.266 5.733 11.478 5.733 17.964 0 5.47-1.444 10.847-4.176 15.55z"/><path d="m13.643 9.548-1.267-1.547c5.515-4.515 12.484-7.001 19.624-7.001 6.486 0 12.698 1.982 17.964 5.732l-1.16 1.629c-4.926-3.507-10.737-5.361-16.804-5.361-6.68 0-13.199 2.325-18.357 6.548z"/><path d="m54 63c-4.962 0-9-4.037-9-9s4.038-9 9-9 9 4.037 9 9-4.038 9-9 9zm0-16c-3.86 0-7 3.141-7 7s3.14 7 7 7 7-3.141 7-7-3.14-7-7-7z"/><path d="m53 17c-3.309 0-6-2.691-6-6s2.691-6 6-6 6 2.691 6 6-2.691 6-6 6zm0-10c-2.206 0-4 1.794-4 4s1.794 4 4 4 4-1.794 4-4-1.794-4-4-4z"/><path d="m11 15c-2.206 0-4-1.794-4-4s1.794-4 4-4 4 1.794 4 4-1.794 4-4 4zm0-6c-1.103 0-2 .897-2 2s.897 2 2 2 2-.897 2-2-.897-2-2-2z"/><path d="m10 58c-3.309 0-6-2.691-6-6s2.691-6 6-6 6 2.691 6 6-2.691 6-6 6zm0-10c-2.206 0-4 1.794-4 4s1.794 4 4 4 4-1.794 4-4-1.794-4-4-4z"/><path d="m32 46c-7.72 0-14-6.28-14-14s6.28-14 14-14 14 6.28 14 14-6.28 14-14 14zm0-26c-6.617 0-12 5.383-12 12s5.383 12 12 12 12-5.383 12-12-5.383-12-12-12z"/><path d="m36.152 20.53-4.152-6.643-4.152 6.644-1.696-1.061 5-8c.366-.584 1.33-.584 1.696 0l5 8z"/><path d="m32 53c-.345 0-.665-.178-.848-.47l-5-8 1.696-1.061 4.152 6.644 4.152-6.644 1.696 1.061-5 8c-.183.292-.503.47-.848.47z"/><path d="m19.47 37.848-8-5c-.292-.183-.47-.503-.47-.848s.178-.665.47-.848l8-5 1.06 1.695-6.643 4.153 6.643 4.152z"/><path d="m44.53 37.848-1.06-1.695 6.643-4.153-6.643-4.152 1.06-1.695 8 5c.292.182.47.502.47.847s-.178.665-.47.848z"/><path d="m19.024 27.217-2-9c-.074-.334.027-.683.269-.924s.592-.342.924-.27l9 2-.434 1.953-7.466-1.659 1.659 7.466z"/><path d="m44.976 27.217-1.952-.434 1.659-7.466-7.466 1.659-.434-1.953 9-2c.331-.074.682.027.924.27.242.241.343.59.269.924z"/><path d="m46 47c-.072 0-.145-.008-.217-.023l-9-2 .434-1.953 7.466 1.659-1.659-7.466 1.952-.434 2 9c.074.334-.027.683-.269.924-.189.189-.445.293-.707.293z"/><path d="m18 47c-.262 0-.518-.104-.707-.293-.242-.241-.343-.59-.269-.924l2-9 1.952.434-1.659 7.466 7.466-1.659.434 1.953-9 2c-.072.015-.145.023-.217.023z"/></svg>