<svg id="Layer_3" enable-background="new 0 0 64 64" height="512" viewBox="0 0 64 64" width="512" xmlns="http://www.w3.org/2000/svg"><path d="m35 6v28c0 2.209-1.791 4-4 4h-17c-4.418 0-8 3.582-8 8v10h44 7v-50" fill="#8892a0"/><path d="m14.5 52c10.05 0 18.394-7.06 20.146-16.37-.625 1.394-2.019 2.37-3.646 2.37h-17c-4.418 0-8 3.582-8 8v4.184c2.592 1.155 5.464 1.816 8.5 1.816z" fill="#a8b0bc"/><path d="m33 2h26v4h-26z" fill="#8892a0"/><path d="m35 24h18v4h-18z" fill="#c1c8d1"/><path d="m35 12h18v4h-18z" fill="#c1c8d1"/><g fill="#b8b9b3"><path d="m45 10h4v8h-4z"/><path d="m45 22h4v8h-4z"/><path d="m53 6h4v50h-4z"/></g><path d="m17 60v2h6v-2h4v2h6v-2h16v2h6v-2h2v-4h-52v4h2v2h6v-2z" fill="#c18e59"/><path d="m56 6h2v50h-2z"/><path d="m50 57h-44c-.552 0-1-.447-1-1v-10c0-4.963 4.038-9 9-9h17c1.654 0 3-1.346 3-3v-28h2v28c0 2.757-2.243 5-5 5h-17c-3.86 0-7 3.141-7 7v9h43z"/><path d="m52 6h2v50h-2z"/><path d="m11 56h-2v-10c0-2.757 2.243-5 5-5h6v2h-6c-1.654 0-3 1.346-3 3z"/><path d="m10 47h43v2h-43z"/><path d="m55 63h-6c-.552 0-1-.447-1-1v-1h-14v1c0 .553-.448 1-1 1h-6c-.552 0-1-.447-1-1v-1h-2v1c0 .553-.448 1-1 1h-6c-.552 0-1-.447-1-1v-1h-2v1c0 .553-.448 1-1 1h-6c-.552 0-1-.447-1-1v-1h-1c-.552 0-1-.447-1-1v-4c0-.553.448-1 1-1h52c.552 0 1 .447 1 1v4c0 .553-.448 1-1 1h-1v1c0 .553-.448 1-1 1zm-5-2h4v-1c0-.553.448-1 1-1h1v-2h-50v2h1c.552 0 1 .447 1 1v1h4v-1c0-.553.448-1 1-1h4c.552 0 1 .447 1 1v1h4v-1c0-.553.448-1 1-1h4c.552 0 1 .447 1 1v1h4v-1c0-.553.448-1 1-1h16c.552 0 1 .447 1 1z"/><path d="m59 7h-26c-.552 0-1-.447-1-1v-4c0-.553.448-1 1-1h26c.552 0 1 .447 1 1v4c0 .553-.448 1-1 1zm-25-2h24v-2h-24z"/><path d="m49 19h-4c-.552 0-1-.447-1-1v-8c0-.553.448-1 1-1h4c.552 0 1 .447 1 1v8c0 .553-.448 1-1 1zm-3-2h2v-6h-2z"/><path d="m35 11h10v2h-10z"/><path d="m35 15h10v2h-10z"/><path d="m49 11h4v2h-4z"/><path d="m49 15h4v2h-4z"/><path d="m49 31h-4c-.552 0-1-.447-1-1v-8c0-.553.448-1 1-1h4c.552 0 1 .447 1 1v8c0 .553-.448 1-1 1zm-3-2h2v-6h-2z"/><path d="m35 23h10v2h-10z"/><path d="m35 27h10v2h-10z"/><path d="m49 23h4v2h-4z"/><path d="m49 27h4v2h-4z"/></svg>