<svg id="Layer_3" enable-background="new 0 0 64 64" height="512" viewBox="0 0 64 64" width="512" xmlns="http://www.w3.org/2000/svg"><g fill="#8892a0"><path d="m24 17-15-15-7 7 15 15"/><path d="m47 40 15 15-7 7-15-15"/><path d="m26 23 3 3-3 3-3-3"/><path d="m41 38-3-3-3 3 3 3"/></g><path d="m32 15c-9.389 0-17 7.611-17 17s7.611 17 17 17 17-7.611 17-17-7.611-17-17-17zm0 28c-6.075 0-11-4.925-11-11s4.925-11 11-11 11 4.925 11 11-4.925 11-11 11z" fill="#4d5d7a"/><path d="m32 50c-9.925 0-18-8.075-18-18s8.075-18 18-18 18 8.075 18 18-8.075 18-18 18zm0-34c-8.822 0-16 7.178-16 16s7.178 16 16 16 16-7.178 16-16-7.178-16-16-16z"/><path d="m32 44c-6.617 0-12-5.383-12-12s5.383-12 12-12 12 5.383 12 12-5.383 12-12 12zm0-22c-5.514 0-10 4.486-10 10s4.486 10 10 10 10-4.486 10-10-4.486-10-10-10z"/><path d="m16.293 24.707-15-15c-.391-.391-.391-1.023 0-1.414l7-7c.391-.391 1.023-.391 1.414 0l15 15-1.414 1.414-14.293-14.293-5.586 5.586 14.293 14.293z"/><path d="m11.5 1.893h2v21.213h-2z" transform="matrix(.707 -.707 .707 .707 -5.178 12.5)"/><path d="m4.55 8.5h9.899v2h-9.899z" transform="matrix(.707 -.707 .707 .707 -3.935 9.5)"/><path d="m10.55 14.5h9.899v2h-9.899z" transform="matrix(.707 -.707 .707 .707 -6.42 15.5)"/><path d="m55 63c-.256 0-.512-.098-.707-.293l-15-15 1.414-1.414 14.293 14.293 5.586-5.586-14.293-14.293 1.414-1.414 15 15c.391.391.391 1.023 0 1.414l-7 7c-.195.195-.451.293-.707.293z"/><path d="m50.5 40.893h2v21.213h-2z" transform="matrix(.707 -.707 .707 .707 -21.332 51.5)"/><path d="m49.55 53.5h9.899v2h-9.899z" transform="matrix(.707 -.707 .707 .707 -22.575 54.5)"/><path d="m43.55 47.5h9.899v2h-9.899z" transform="matrix(.707 -.707 .707 .707 -20.089 48.5)"/><path d="m61 20h2v2h-2z"/><path d="m57 20h2v2h-2z"/><path d="m59 18h2v2h-2z"/><path d="m59 22h2v2h-2z"/><path d="m48 9c-2.206 0-4-1.794-4-4s1.794-4 4-4 4 1.794 4 4-1.794 4-4 4zm0-6c-1.103 0-2 .897-2 2s.897 2 2 2 2-.897 2-2-.897-2-2-2z"/><path d="m18 59h2v2h-2z"/><path d="m14 59h2v2h-2z"/><path d="m16 57h2v2h-2z"/><path d="m16 61h2v2h-2z"/><path d="m5 48c-2.206 0-4-1.794-4-4s1.794-4 4-4 4 1.794 4 4-1.794 4-4 4zm0-6c-1.103 0-2 .897-2 2s.897 2 2 2 2-.897 2-2-.897-2-2-2z"/><path d="m26 30c-.256 0-.512-.098-.707-.293l-3-3 1.414-1.414 2.293 2.293 1.586-1.586-2.293-2.293 1.414-1.414 3 3c.391.391.391 1.023 0 1.414l-3 3c-.195.195-.451.293-.707.293z"/><path d="m37.293 41.707-3-3c-.391-.391-.391-1.023 0-1.414l3-3c.391-.391 1.023-.391 1.414 0l3 3-1.414 1.414-2.293-2.293-1.586 1.586 2.293 2.293z"/></svg>